<?xml version="1.0" encoding="iso-8859-1"?>
<!-- Generator: Adobe Illustrator 19.0.0, SVG Export Plug-In . SVG Version: 6.00 Build 0)  -->
<svg version="1.1" id="Layer_1" xmlns="http://www.w3.org/2000/svg" xmlns:xlink="http://www.w3.org/1999/xlink" x="0px" y="0px"
	 viewBox="0 0 512.001 512.001" style="enable-background:new 0 0 512.001 512.001;" xml:space="preserve">
<path style="fill:#ECF0F1;" d="M352.059,436.3c-15.7-41.201-7.231-87.806,21.091-121.597
	c29.751-35.497,60.581-85.975,60.581-125.864c0-98.159-79.573-177.731-177.731-177.731S78.268,90.68,78.268,188.839
	c0,124.323,112.504,298.137,335.923,312.052C414.189,500.891,370.788,485.45,352.059,436.3z"/>
<g>
	<ellipse style="fill:#E87078;" cx="200.969" cy="141.507" rx="22.216" ry="31.103"/>
	<ellipse style="fill:#E87078;" cx="305.387" cy="141.507" rx="22.216" ry="31.103"/>
	<path style="fill:#E87078;" d="M253.175,303.691L253.175,303.691c-16.258,0-29.437-13.179-29.437-29.437V242.04
		c0-16.258,13.179-29.437,29.437-29.437l0,0c16.258,0,29.437,13.179,29.437,29.437v32.214
		C282.611,290.511,269.431,303.691,253.175,303.691z"/>
</g>
<g>
	<path style="fill:#231F20;" d="M417.913,490.426c-0.385-0.138-38.763-14.23-55.472-58.08
		c-14.151-37.133-6.785-79.476,19.224-110.507c14.821-17.682,63.176-79.533,63.176-132.999C444.84,84.713,360.127,0,256.001,0
		S67.161,84.713,67.161,188.84c0,69.232,32.57,145.853,87.125,204.963c45.579,49.385,127.55,109.975,259.215,118.176
		c0.234,0.014,0.467,0.022,0.699,0.022c5.239,0,9.811-3.685,10.875-8.88C426.183,497.695,423.129,492.281,417.913,490.426z
		 M170.611,378.734c-50.867-55.113-81.234-126.102-81.234-189.895c0-91.876,74.747-166.623,166.623-166.623
		s166.623,74.747,166.623,166.623c0,36.528-29.954,85.282-57.986,118.728c-31.175,37.196-39.972,88.039-22.957,132.689l0,0
		c7.327,19.227,18.055,33.74,28.872,44.473C271.864,468.026,208.092,419.344,170.611,378.734z"/>
	<path style="fill:#231F20;" d="M200.966,183.722c18.686,0,33.325-18.541,33.325-42.211S219.652,99.3,200.966,99.3
		s-33.325,18.541-33.325,42.211S182.279,183.722,200.966,183.722z M200.966,121.516c5.244,0,11.108,8.551,11.108,19.995
		c0,11.444-5.864,19.995-11.108,19.995s-11.108-8.551-11.108-19.995C189.858,130.067,195.722,121.516,200.966,121.516z"/>
	<path style="fill:#231F20;" d="M305.382,99.3c-18.686,0-33.325,18.541-33.325,42.211s14.638,42.211,33.325,42.211
		c18.686,0,33.325-18.541,33.325-42.211S324.07,99.3,305.382,99.3z M305.382,161.506c-5.244,0-11.108-8.551-11.108-19.995
		c0-11.444,5.864-19.995,11.108-19.995s11.108,8.551,11.108,19.995C316.49,152.955,310.626,161.506,305.382,161.506z"/>
	<path style="fill:#231F20;" d="M293.719,242.04c0-22.356-18.189-40.545-40.545-40.545s-40.545,18.189-40.545,40.545v32.214
		c0,22.356,18.189,40.545,40.545,40.545c22.355,0,40.545-18.189,40.545-40.545V242.04z M271.502,274.254
		c0,10.106-8.221,18.329-18.329,18.329l0,0c-10.106,0-18.329-8.222-18.329-18.329V242.04c0-10.106,8.222-18.329,18.329-18.329
		c10.106,0,18.329,8.222,18.329,18.329V274.254z"/>
	<path style="fill:#231F20;" d="M361.099,257.152c1.806,1.102,3.802,1.626,5.773,1.626c3.746,0,7.401-1.895,9.494-5.326
		c15.503-25.419,24.04-48.366,24.04-64.613c0-6.135-4.974-11.108-11.108-11.108c-6.134,0-11.108,4.973-11.108,11.108
		c0,11.869-7.772,31.698-20.791,53.045C354.205,247.121,355.862,253.957,361.099,257.152z"/>
</g>
<g>
</g>
<g>
</g>
<g>
</g>
<g>
</g>
<g>
</g>
<g>
</g>
<g>
</g>
<g>
</g>
<g>
</g>
<g>
</g>
<g>
</g>
<g>
</g>
<g>
</g>
<g>
</g>
<g>
</g>
</svg>
