<svg xmlns="http://www.w3.org/2000/svg" xmlns:xlink="http://www.w3.org/1999/xlink" preserveAspectRatio="xMidYMid meet" width="160" height="148" xmlns:v="https://vecta.io/nano"><defs><path d="M146.39 89.93c-1.82 19.31-11.98 36.86-27.81 48.06h27.27l14.15-24.5-13.61-23.56z" id="A"/><path d="M0 113.49l14.14 24.5H41.4a66.6 66.6 0 0 1-27.76-48.06L0 113.49z" id="B"/><path d="M107.73 22.97L94.47 0H65.56L52.27 22.97c8.71-3.99 18.17-6.05 27.75-6.04 9.56-.01 19.02 2.05 27.71 6.04z" id="C"/><path d="M92.93 8.44h3.33l-3.33-5.76H85.9l1.66 2.87h3.71 0l1.66 2.89z" id="D"/><path d="M68.76 5.55h3.72l1.65-2.87H67.1l-3.33 5.76h3.33 0l1.66-2.89z" id="E"/><path d="M8.44 110.01l-1.65-2.87-3.32 5.76 3.51 6.09 1.67-2.87-1.86-3.22h0l1.65-2.89z" id="F"/><path d="M18.04 132.4l-1.85-3.22h-3.33l3.52 6.09h6.65l-1.66-2.87h0-3.33z" id="G"/><path d="M138.66 132.4l-1.66 2.87h6.65l3.52-6.09h-3.32l-1.86 3.22h0-3.33z" id="H"/><path d="M153.25 112.9l-1.87 3.22 1.67 2.87 3.51-6.09-3.32-5.76-1.65 2.87h0l1.66 2.89z" id="I"/><path d="M36.23 111.09c15.18 24.18 47.09 31.48 71.27 16.3a51.77 51.77 0 0 0 16.3-16.3c.03.02.32.18.35.2-15.27 24.38-47.41 31.76-71.79 16.49a52.11 52.11 0 0 1-16.48-16.49l.35-.2z" id="J"/><path d="M125.74 107.73c13.37-25.23 3.75-56.52-21.47-69.88a51.73 51.73 0 0 0-22.29-5.98v-.41c28.76 1.06 51.21 25.23 50.16 53.99-.29 7.85-2.35 15.54-6.03 22.48a12.4 12.4 0 0 0-.37-.2z" id="K"/><path d="M78.07 31.87c-28.55 1.06-50.82 25.06-49.76 53.61a51.78 51.78 0 0 0 5.96 22.25c-.03.02-.32.18-.35.2-13.47-25.43-3.78-56.97 21.66-70.44 6.94-3.68 14.63-5.74 22.49-6.03v.41z" id="L"/><path d="M115.66 49.84l-.37-.36-.37.35.36.38.38-.37z" id="M"/><path d="M118.4 53.02l-.4.32.32.4.42-.32h0l-.34-.4z" id="N"/><path d="M119.04 113.4l.32-.42-.41-.31-.32.42.41.31z" id="O"/><path d="M114.91 118.15l.37-.38-.37-.36-.37.37.37.37z" id="P"/><path d="M119.36 54.25l-.41.31.31.42.41-.3h0l-.31-.43z" id="Q"/><path d="M120.59 55.96c-.11-.14-.2-.28-.3-.44l-.43.31.29.42.44-.29z" id="R"/><path d="M116.72 51.01l-.35-.39-.39.35a4.02 4.02 0 0 1 .34.38c.06-.04.19-.16.4-.34z" id="S"/><path d="M116.36 116.62l-.38-.35-.36.38.38.36h0l.36-.39z" id="T"/><path d="M117.74 52.2l-.34-.39-.39.33.33.39.4-.33z" id="U"/><path d="M117.06 115.83l.33-.39-.39-.33-.33.39.39.33z" id="V"/><path d="M118.07 114.63l.33-.4-.4-.33-.33.4.4.33z" id="W"/><path d="M119.99 112.14a4.27 4.27 0 0 0 .3-.44l-.41-.3-.31.43.42.31z" id="X"/><path d="M125.78 67.3l.49-.18-.18-.49-.49.18.18.49z" id="Y"/><path d="M126.73 70.26l.5-.15-.14-.49-.5.15.14.49z" id="Z"/><path d="M126.78 68.62l-.17-.5c-.05.01-.45.15-.5.16l.17.49.5-.15z" id="a"/><path d="M127.99 73.17l-.11-.51-.51.12.12.51.5-.12z" id="b"/><path d="M127.65 71.63l-.13-.49-.52.13.13.5h0l.52-.14z" id="c"/><path d="M125.72 65.65l-.2-.49-.48.2.19.48h0l.49-.19z" id="d"/><path d="M122 58.16l-.44.26.26.45.46-.26h0l-.28-.45z" id="e"/><path d="M122.8 59.52l-.45.25.25.45.45-.25h0l-.25-.45z" id="f"/><path d="M125.12 64.2c-.08-.16-.14-.32-.21-.48-.04.02-.42.18-.47.2.06.17.13.32.2.48l.48-.2z" id="g"/><path d="M121.44 57.27l-.27-.44-.44.29c.1.14.19.28.27.44l.44-.29z" id="h"/><path d="M123.78 61.36l-.23-.47-.47.24.24.47.46-.24z" id="i"/><path d="M105.93 41.91l-.45-.28-.28.44.44.28.29-.44z" id="j"/><path d="M105.21 125.15l-.43.27.26.44.45-.26h0l-.28-.45z" id="k"/><path d="M104.12 40.83l-.26.45.45.26.26-.45h0l-.45-.26z" id="l"/><path d="M103.87 125.93l-.45.26.25.46.46-.25h0l-.26-.47z" id="m"/><path d="M103.19 40.33l-.46-.25-.25.46.47.24.24-.45z" id="n"/><path d="M106.53 124.33l-.44.27.28.44.45-.28h0l-.29-.43z" id="o"/><path d="M128.31 74.71l-.11-.51-.51.1.1.51h0l.52-.1z" id="p"/><path d="M101.13 127.37l-.48.23.23.47.47-.22h0l-.22-.48z" id="q"/><path d="M100.37 38.94l-.48-.22-.21.48.47.21.22-.47z" id="r"/><path d="M114.55 48.73c-.12-.13-.25-.25-.38-.37l-.35.37.36.37.37-.37z" id="s"/><path d="M107.25 42.76l-.44-.29-.29.44.44.28.29-.43z" id="t"/><path d="M101.32 39.37l-.23.47.48.23.22-.47h0l-.47-.23z" id="u"/><path d="M102.74 127.14l-.23-.46-.47.24.24.46.46-.24z" id="v"/><path d="M99.93 128.51l-.22-.47-.47.2.2.47.49-.2z" id="w"/><path d="M112.25 46.58l-.41-.34-.33.4.39.34.35-.4z" id="x"/><path d="M113.02 119.96l-.34-.38-.4.34.35.39.39-.35z" id="y"/><path d="M111.84 121l-.34-.4-.39.33.33.4.4-.33z" id="z"/><path d="M114.17 118.89l-.37-.38-.36.35.35.38.38-.35z" id="AA"/><path d="M113.03 47.28l-.34.39.38.35.35-.39h0l-.39-.35z" id="AB"/><path d="M109.81 44.59l-.43-.32-.3.42.41.32.32-.42z" id="AC"/><path d="M109.38 122.96l-.3-.41-.42.31.31.41.41-.31z" id="AD"/><path d="M108.11 43.35l-.29.42.42.31.3-.43h0l-.43-.3z" id="AE"/><path d="M107.82 123.45l-.43.3.3.42.42-.29h0l-.29-.43z" id="AF"/><path d="M110.63 45.23l-.32.41.41.33.33-.4h0l-.42-.34z" id="AG"/><path d="M110.63 122l-.33-.4-.4.32.32.4.41-.32z" id="AH"/><path d="M125.92 101.04c0-.17.13-.32.19-.49-.05-.01-.44-.16-.48-.17-.08.15-.13.34-.19.48.09.04.43.16.48.18z" id="AI"/><path d="M37.24 107.74l.47-.25-.26-.45-.46.25h0l.25.45z" id="AJ"/><path d="M38.6 109.99l.28.44.43-.29-.27-.43-.44.28z" id="AK"/><path d="M37.77 108.66l.27.44.45-.26-.27-.46-.45.28z" id="AL"/><path d="M36.5 106.36l.46-.23-.24-.47-.46.24h0l.24.46z" id="AM"/><path d="M34.93 103.06c0 .17.13.32.2.49.05-.02.43-.19.47-.22l-.2-.47-.47.2z" id="AN"/><path d="M128.56 76.27c0-.18 0-.35-.08-.52-.05 0-.46.07-.51.08l.08.51.51-.07z" id="AO"/><path d="M40.39 112.6l.31.43.42-.31-.31-.43-.42.31z" id="AP"/><path d="M43.33 116.25l.35.39.38-.36-.34-.38-.39.35z" id="AQ"/><path d="M42.31 115.06l.33.39.4-.33-.33-.39-.4.33z" id="AR"/><path d="M34.32 101.61l.19.49.49-.19-.19-.49-.49.19z" id="AS"/><path d="M41.64 114.24l.42-.32-.34-.4-.4.32h0l.32.4z" id="AT"/><path d="M39.47 111.29c.09.16.19.3.29.44.05-.03.39-.27.43-.3l-.3-.42a10.21 10.21 0 0 1-.42.28z" id="AU"/><path d="M35.57 104.51l.22.46c.05-.02.42-.2.47-.22-.07-.17-.14-.32-.23-.47l-.46.23z" id="AV"/><path d="M31.1 87.83v.52h.52c.03-.18.02-.35 0-.52h-.52z" id="AW"/><path d="M31.26 89.43l.07.53.51-.06c-.03-.18-.05-.35-.06-.53l-.52.06z" id="AX"/><path d="M30.99 86.31l.04.52.51-.03-.02-.53h0l-.53.04z" id="AY"/><path d="M31.47 91c0 .17 0 .35.08.51l.51-.08c.02-.21-.06-.33-.08-.51-.1.01-.46.07-.51.08z" id="AZ"/><path d="M30.94 84.73l.01.52.52-.01-.01-.52h0l-.52.01z" id="Aa"/><path d="M31.73 92.55l.1.52.51-.11-.1-.51h0l-.51.1z" id="Ab"/><path d="M33.26 98.65l.17.5.49-.16-.16-.5h0l-.5.16z" id="Ac"/><path d="M33.26 97l-.51.14c0 .17.11.34.16.5l.5-.14-.15-.5z" id="Ad"/><path d="M32.4 95.62l.13.51.51-.13-.13-.51h0l-.51.13z" id="Ae"/><path d="M34.26 99.97l-.5.17.19.5c.04-.01.2-.07.49-.18l-.18-.49z" id="Af"/><path d="M32.04 94.09l.12.51.5-.12-.11-.5h0l-.51.11z" id="Ag"/><path d="M44.4 117.35l.35.38.38-.35-.35-.38-.38.35z" id="Ah"/><path d="M129.06 85.65v-.52h-.52c.02.14.01.36.01.52h.51z" id="Ai"/><path d="M128.45 87.21h.53v-.52h-.53v.52z" id="Aj"/><path d="M128.82 88.77c0-.17 0-.35.06-.53h-.52c-.05.18-.05.35-.05.53h.51z" id="Ak"/><path d="M128.41 91.94c0-.18 0-.34.08-.52l-.51-.09-.08.51.51.1z" id="Al"/><path d="M128.64 90.38l.08-.52-.53-.07c-.01.24-.03.34-.06.52l.51.07z" id="Am"/><path d="M129.04 80.99v-.53h-.53c-.01.18 0 .36 0 .53h.53z" id="An"/><path d="M128.93 79.44v-.52h-.52c-.03.18-.02.34 0 .52h.52z" id="Ao"/><path d="M128.83 77.83l-.07-.53-.51.07c-.03.17-.02.35.06.51.07 0 .25-.02.52-.05z" id="Ap"/><path d="M129.1 82.54v-.52h-.53v.52h.53z" id="Aq"/><path d="M128.12 93.48l.1-.52-.51-.09-.1.51h0l.51.1z" id="Ar"/><path d="M129.11 84.11v-.53l-.53.03v.49h0l.53.01z" id="As"/><path d="M122.55 108.16l.26-.45-.46-.26-.25.45h0l.45.26z" id="At"/><path d="M123.56 105.15l.46.23.23-.47-.47-.23-.22.47z" id="Au"/><path d="M123.31 106.78l.25-.46-.46-.24-.24.45h0l.45.25z" id="Av"/><path d="M120.45 110.55l.42.28.3-.43-.44-.28-.28.43z" id="Aw"/><path d="M121.29 109.24l.44.27.27-.45c-.03-.02-.17-.1-.44-.26l-.27.44z" id="Ax"/><path d="M124.24 103.74l.47.21.21-.47-.47-.22-.21.48z" id="Ay"/><path d="M126.46 97.9l.48.16.16-.51-.5-.14-.14.49z" id="Az"/><path d="M127.78 95.02c0-.17.08-.35.12-.51-.06-.02-.46-.11-.52-.12l-.11.51.51.12z" id="BA"/><path d="M127.38 96.54l.15-.5-.51-.13-.13.5c.06.01.23.06.49.13z" id="BB"/><path d="M126.42 99.56l.17-.5-.49-.17a1.24 1.24 0 0 1-.17.5l.49.17z" id="BC"/><path d="M125.34 102.51l.2-.48-.48-.2-.19.48.47.2z" id="BD"/><path d="M98.92 38.3l-.49-.21-.19.49.48.19.2-.47z" id="BE"/><path d="M124.47 62.77l-.22-.47-.47.22.23.47h0l.46-.22z" id="BF"/><path d="M50.16 45.29l-.26-.41-.42.32.32.4.36-.31z" id="BG"/><path d="M48.95 46.28l-.34-.4-.4.33.33.4.41-.33z" id="BH"/><path d="M45.5 49.43l-.37-.37-.37.38.38.36.36-.37z" id="BI"/><path d="M49.74 121.61l-.4-.32-.33.4.41.32.32-.4z" id="BJ"/><path d="M51.1 43.94l-.43.31.31.41.41-.3h0l-.29-.42z" id="BK"/><path d="M52.27 123.47l-.42-.29-.3.41.43.31.29-.43z" id="BL"/><path d="M48.54 120.62l-.39-.34-.34.39.39.34.34-.39z" id="BM"/><path d="M46.62 48.34l-.36-.37-.38.35.36.38.38-.36z" id="BN"/><path d="M98.29 128.64l-.48.19.19.48.49-.19h0l-.2-.48z" id="BO"/><path d="M46.99 119.23l-.35.38.38.36.35-.38h0l-.38-.36z" id="BP"/><path d="M52.37 43.04l-.43.29.3.43.43-.3h0l-.3-.42z" id="BQ"/><path d="M47.76 47.25l-.35-.39-.38.36.35.38.38-.35z" id="BR"/><path d="M50.56 122.25l-.32.4.43.32.31-.41h0l-.42-.31z" id="BS"/><path d="M57.57 126.7l-.46-.23-.25.45.46.25.25-.47z" id="BT"/><path d="M58.5 127.18l-.24.46.48.23.22-.46h0l-.46-.23z" id="BU"/><path d="M58.01 40.3l-.24-.46-.46.24.24.46.46-.24z" id="BV"/><path d="M53.53 124.34l-.44-.28-.28.43.44.29.28-.44z" id="BW"/><path d="M59.18 39.14l-.47.23.23.47.46-.22h0l-.22-.48z" id="BX"/><path d="M60.38 128.05l-.48-.22-.21.48.48.21.21-.47z" id="BY"/><path d="M54.41 124.9l-.27.44.44.27.27-.44h0l-.44-.27z" id="BZ"/><path d="M53.69 42.17l-.44.28.28.43.44-.27h0l-.28-.44z" id="Ba"/><path d="M55.02 41.35l-.44.26.26.45.45-.27h0l-.27-.44z" id="Bb"/><path d="M56.63 41.03l-.25-.46-.45.26.25.45.45-.25z" id="Bc"/><path d="M56.19 125.96l-.45-.25-.26.45.46.26.25-.46z" id="Bd"/><path d="M44.43 50.56l-.39-.36-.34.38.38.36.35-.38z" id="Be"/><path d="M32.27 72.18l-.13.51.51.11.11-.5h0l-.49-.12z" id="Bf"/><path d="M31.92 73.71l-.11.52.52.1.1-.51h0l-.51-.11z" id="Bg"/><path d="M32.65 70.65l-.13.51.49.13.15-.5h0l-.51-.14z" id="Bh"/><path d="M33.57 67.64l-.16.5.5.17c.04-.17.1-.33.16-.5l-.5-.17z" id="Bi"/><path d="M33.09 69.14l-.16.51.5.14.15-.5-.49-.15z" id="Bj"/><path d="M34.12 66.16l-.19.48.49.18.19-.48h0l-.49-.18z" id="Bk"/><path d="M31.62 75.26c0 .18-.06.34-.08.52l.51.08c.03-.17.03-.34.09-.51l-.52-.09z" id="Bl"/><path d="M31.9 76.89l-.51-.07-.07.52.51.07.07-.52z" id="Bm"/><path d="M31.45 83.1l-.53-.01v.59h.53 0v-.58z" id="Bn"/><path d="M30.97 81.52l-.02.52.52.01.01-.51h0l-.51-.02z" id="Bo"/><path d="M31.05 79.94l-.03.52.52.04.04-.51h0l-.53-.05z" id="Bp"/><path d="M31.2 78.43v.52h.52c-.05-.17-.02-.34-.01-.52h-.51z" id="Bq"/><path d="M41 53.8l-.32.43.43.31c.09-.16.2-.28.3-.42L41 53.8z" id="Br"/><path d="M40.49 55.37l-.43-.3-.3.43.43.3.3-.43z" id="Bs"/><path d="M60.82 38.94l-.21-.49-.48.21.21.48.48-.2z" id="Bt"/><path d="M41.98 52.57l-.33.41.41.32.33-.4h0l-.41-.33z" id="Bu"/><path d="M39.6 56.65l-.43-.28-.3.44.44.28.29-.44z" id="Bv"/><path d="M34.7 64.68l-.2.49.49.2.19-.48h0l-.48-.21z" id="Bw"/><path d="M43.39 51.71l-.4-.34-.34.4.39.33.35-.39z" id="Bx"/><path d="M35.81 63.46l-.48-.21-.21.47.47.22.22-.48z" id="By"/><path d="M36.01 61.82l-.23.48c.05.02.42.2.47.22l.22-.47-.46-.23z" id="Bz"/><path d="M38.02 59.3l-.46-.26-.26.46c.03.02.18.1.45.25l.27-.45z" id="CA"/><path d="M37.2 60.67l-.47-.25-.25.46.47.24.25-.45z" id="CB"/><path d="M38.75 57.95l-.44-.29-.27.45.44.28.27-.44z" id="CC"/><path d="M45.87 118.9l.37-.38-.38-.36-.36.37.37.37z" id="CD"/><path d="M89.45 131.8l-.11-.51-.51.11.1.51.52-.11z" id="CE"/><path d="M85.23 34.79h-.52v.51h.51l.01-.51z" id="CF"/><path d="M86.8 34.98l-.52-.07-.07.52.52.07.07-.52z" id="CG"/><path d="M88.34 35.22l-.51-.08-.08.52.51.08.08-.52z" id="CH"/><path d="M87.92 132.09l-.09-.53-.51.09.09.51.51-.07z" id="CI"/><path d="M84.73 131.97l-.52.05.05.51.52-.05h0l-.05-.51z" id="CJ"/><path d="M86.34 132.31v-.52l-.53.07v.51l.53-.06z" id="CK"/><path d="M80.53 34.52H80l.02.52h.49 0l.02-.52z" id="CL"/><path d="M81.63 132.68v-.51h-.52v.52l.52-.01z" id="CM"/><path d="M81.57 34.54l-.01.52.51.02.02-.51h0l-.52-.03z" id="CN"/><path d="M83.16 132.61v-.52h-.52v.52h.52z" id="CO"/><path d="M83.66 34.65h-.52v.52h.52v-.52z" id="CP"/><path d="M97.02 129.69l-.18-.49-.49.18.17.48.5-.17z" id="CQ"/><path d="M94.46 36.68l-.5-.15-.14.49.5.16.14-.5z" id="CR"/><path d="M95.53 130.21l-.16-.5-.49.17.15.5.5-.17z" id="CS"/><path d="M89.38 35.41l-.1.51.51.11.11-.51h0l-.52-.11z" id="CT"/><path d="M96.97 37.52l-.18.49.49.18.18-.49h0l-.49-.18z" id="CU"/><path d="M61.78 128.66l-.48-.19-.2.48.49.2.19-.49z" id="CV"/><path d="M95.97 37.17l-.5-.17-.16.5.49.17.17-.5z" id="CW"/><path d="M90.98 131.48l-.11-.51-.51.12.11.51.51-.12z" id="CX"/><path d="M94.03 130.68l-.15-.49-.5.14.14.5.51-.15z" id="CY"/><path d="M90.92 35.73l-.12.51.51.12.12-.51h0l-.51-.12z" id="CZ"/><path d="M92.51 131.1l-.13-.5-.5.13.12.5.51-.13z" id="Ca"/><path d="M92.95 36.24l-.5-.13-.13.5.5.14.13-.51z" id="Cb"/><path d="M79.55 132.18l-.01.52h.52l-.04-.51h0l-.47-.01z" id="Cc"/><path d="M66.53 36.4l-.5.14.14.5.5-.15h0l-.14-.49z" id="Cd"/><path d="M66.25 130.21l-.5-.14-.16.48.5.16.16-.5z" id="Ce"/><path d="M67.24 130.49l-.14.5.51.13.13-.49h0l-.5-.14z" id="Cf"/><path d="M69.69 36.13l-.11-.5-.51.11.12.51.5-.12z" id="Cg"/><path d="M68.18 36.49l-.13-.5-.51.13.13.5.51-.13z" id="Ch"/><path d="M69.25 130.99l-.5-.12-.13.52.51.11.12-.51z" id="Ci"/><path d="M63.28 129.24l-.49-.19-.19.48.5.19.18-.48z" id="Cj"/><path d="M62.06 37.9l-.48.19.2.49.47-.19h0l-.19-.49z" id="Ck"/><path d="M65.19 37.35l-.17-.5-.5.16.17.5.5-.16z" id="Cl"/><path d="M64.75 129.75l-.49-.17-.18.49.5.18.17-.5z" id="Cm"/><path d="M63.54 37.35l-.49.19.18.48.48-.18h0l-.17-.49z" id="Cn"/><path d="M76.44 132.06l-.04.51.53.04.02-.51h0l-.51-.04z" id="Co"/><path d="M78.96 35.05v-.52h-.55v.52h.55z" id="Cp"/><path d="M75.85 35.22v-.52h-.53v.52h.53z" id="Cq"/><path d="M78.51 132.17h-.53v.52h.53v-.52z" id="Cr"/><path d="M75.39 131.98l-.51-.06-.06.52h.53l.04-.46z" id="Cs"/><path d="M77.4 35.11v-.52h-.52v.51l.52.01z" id="Ct"/><path d="M72.3 131.61l-.51-.08-.08.51.52.08.07-.51z" id="Cu"/><path d="M71.13 35.33l-.51.09.09.51.51-.09h0l-.09-.51z" id="Cv"/><path d="M70.77 131.31l-.5-.09-.1.5.51.11.09-.52z" id="Cw"/><path d="M73.85 131.8h-.51l-.07.51.52.07.06-.58z" id="Cx"/><path d="M74.24 34.85l-.52.07.07.51.51-.06h0l-.06-.52z" id="Cy"/><path d="M72.68 35.06l-.52.08.09.52.51-.08h0l-.08-.52z" id="Cz"/><path d="M123.56 42.36l-.44-.46-.45.44.44.45.45-.43z" id="DA"/><path d="M126.93 46.22l-.5.39.4.5.49-.39h0l-.39-.5z" id="DB"/><path d="M127.71 120.02l.39-.53-.51-.38-.38.51.5.4z" id="DC"/><path d="M122.66 125.81l.45-.46-.45-.44-.46.45.46.45z" id="DD"/><path d="M128.11 47.74l-.51.38.37.51.51-.38h0l-.37-.51z" id="DE"/><path d="M129.59 49.82l-.36-.52-.53.35.36.53.53-.36z" id="DF"/><path d="M124.87 43.77l-.43-.47-.48.43.43.46.48-.42z" id="DG"/><path d="M124.43 123.95l-.47-.43-.44.46.48.44h0l.43-.47z" id="DH"/><path d="M126.11 45.22l-.4-.48-.49.41.41.49.48-.42z" id="DI"/><path d="M125.28 122.99l.42-.48-.49-.42-.42.48.49.42z" id="DJ"/><path d="M126.52 121.52l.4-.49-.5-.41-.39.5.49.4z" id="DK"/><path d="M128.86 118.46l.37-.52-.53-.36-.37.51.53.37z" id="DL"/><path d="M135.94 63.67l.59-.21-.21-.61-.6.23.22.59z" id="DM"/><path d="M137.1 67.3l.61-.18-.18-.62-.61.19.18.61z" id="DN"/><path d="M137.15 65.28l-.2-.61-.6.2.19.61.61-.2z" id="DO"/><path d="M138.65 70.87l-.15-.61-.61.13.13.63.63-.15z" id="DP"/><path d="M138.21 68.97l-.16-.61-.61.16.15.62h0l.62-.17z" id="DQ"/><path d="M135.87 61.65l-.24-.59-.59.24.23.59h0l.6-.24z" id="DR"/><path d="M131.33 52.51l-.55.33.32.55.55-.34h0l-.32-.54z" id="DS"/><path d="M132.29 54.17l-.55.31.31.55.55-.31h0l-.31-.55z" id="DT"/><path d="M135.13 59.88l-.26-.58-.58.26.26.57.58-.25z" id="DU"/><path d="M130.69 51.42l-.36-.53-.52.34.33.54.55-.35z" id="DV"/><path d="M133.5 56.42l-.29-.58-.56.3.28.57.57-.29z" id="DW"/><path d="M111.68 32.64l-.55-.33-.33.54.53.34.35-.55z" id="DX"/><path d="M110.81 134.37l-.55.33.34.55.54-.34h0l-.33-.54z" id="DY"/><path d="M109.47 31.33l-.31.56.55.31.32-.55h0l-.56-.32z" id="DZ"/><path d="M109.17 135.33l-.56.31.31.56.56-.31h0l-.31-.56z" id="Da"/><path d="M108.34 30.72l-.57-.3-.3.56.57.29.3-.55z" id="Db"/><path d="M112.41 133.36l-.53.34.34.54.54-.35h0l-.35-.53z" id="Dc"/><path d="M139.03 72.74l-.12-.63-.63.12.12.62h0l.63-.11z" id="Dd"/><path d="M105.81 137.09l-.57.27.27.57.57-.27h0l-.27-.57z" id="De"/><path d="M104.88 29.01l-.58-.27-.26.59.58.26.26-.58z" id="Df"/><path d="M122.22 40.98l-.46-.45-.45.46.47.44.44-.45z" id="Dg"/><path d="M113.29 33.69l-.53-.35-.36.52.54.36.35-.53z" id="Dh"/><path d="M106.05 29.55l-.28.57.57.29.29-.57h0l-.58-.29z" id="Di"/><path d="M107.79 136.8l-.29-.57c-.18.11-.37.21-.56.3l.28.57.57-.3z" id="Dj"/><path d="M104.35 138.47l-.26-.59-.59.27.27.58.58-.26z" id="Dk"/><path d="M119.4 38.37l-.49-.43-.4.49.47.41.42-.47z" id="Dl"/><path d="M120.35 128.05l-.43-.47-.47.42.43.47.47-.42z" id="Dm"/><path d="M118.9 129.29l-.4-.48-.49.41.4.49.49-.42z" id="Dn"/><path d="M121.75 126.72l-.44-.47-.46.44.44.47.46-.44z" id="Do"/><path d="M120.36 39.21l-.42.48.46.42.44-.46h0l-.48-.44z" id="Dp"/><path d="M116.43 35.93l-.51-.39-.38.51.51.38.38-.5z" id="Dq"/><path d="M115.91 131.69l-.38-.51-.51.38.38.51.51-.38z" id="Dr"/><path d="M114.35 34.41l-.36.52.52.37.36-.52h0l-.52-.37z" id="Ds"/><path d="M113.98 132.29l-.51.37.36.52.52-.37h0l-.37-.52z" id="Dt"/><path d="M117.44 36.72l-.4.5.5.4.4-.5h0l-.5-.4z" id="Du"/><path d="M117.43 130.52l-.41-.5-.49.39.39.5.51-.39z" id="Dv"/><path d="M136.12 104.91l.22-.6-.59-.22-.23.6.6.22z" id="Dw"/><path d="M27.76 113.1l.55-.31-.31-.56-.56.31h0l.32.56z" id="Dx"/><path d="M29.4 115.85l.35.53.53-.34-.34-.54-.54.35z" id="Dy"/><path d="M28.39 114.21l.34.54.54-.32-.33-.55-.55.33z" id="Dz"/><path d="M26.84 111.41l.57-.29-.3-.56-.56.29h0l.29.56z" id="EA"/><path d="M24.91 107.39l.26.58.59-.26-.27-.57-.58.25z" id="EB"/><path d="M139.34 74.64c0-.21-.06-.43-.1-.64l-.63.11.1.61.63-.08z" id="EC"/><path d="M31.56 119.02c.14.16.27.33.39.51l.51-.38-.37-.51c-.11.07-.42.3-.53.38z" id="ED"/><path d="M35.19 123.5l.43.47.47-.43-.43-.47-.47.43z" id="EE"/><path d="M33.93 122.04l.42.48.48-.4-.4-.49-.5.41z" id="EF"/><path d="M24.18 105.62l.23.59a15.26 15.26 0 0 1 .6-.25c-.06-.19-.16-.39-.24-.58l-.59.24z" id="EG"/><path d="M33.13 121.05l.49-.4-.39-.5-.5.39h0l.4.51z" id="EH"/><path d="M30.46 117.45l.37.52.51-.37-.36-.52-.52.37z" id="EI"/><path d="M25.7 109.13l.27.57a15.05 15.05 0 0 0 .58-.27l-.27-.57-.58.27z" id="EJ"/><path d="M20.24 88.77c0 .21 0 .43.06.64.06-.01.57-.05.63-.06l-.06-.58h-.63z" id="EK"/><path d="M21.07 90.66l-.64.07c0 .21.06.43.09.64.04-.01.25-.03.63-.08l-.08-.63z" id="EL"/><path d="M20.11 86.9l.04.63.64-.03-.05-.63h0l-.63.03z" id="EM"/><path d="M20.75 92.64c0 .2.06.42.1.63l.63-.11c-.1-.2-.1-.41-.1-.61-.12.01-.56.08-.63.09z" id="EN"/><path d="M20.04 84.98l.01.64.64-.02-.02-.63h0l-.63.01z" id="EO"/><path d="M21.01 94.53l.12.63.63-.12-.12-.63h0l-.63.12z" id="EP"/><path d="M22.89 101.99l.2.61.6-.2-.19-.61h0l-.61.2z" id="EQ"/><path d="M22.94 99.97l-.62.18.19.62c.04-.01.24-.08.61-.19l-.18-.61z" id="ER"/><path d="M21.83 98.28l.16.63.62-.16-.16-.62h0l-.62.15z" id="ES"/><path d="M24.1 103.6l-.6.21.22.61.6-.23-.22-.59z" id="ET"/><path d="M21.39 96.42l.14.62.63-.13-.15-.63h0l-.62.14z" id="EU"/><path d="M36.48 124.91l.46.46.45-.45-.44-.45-.47.44z" id="EV"/><path d="M139.95 86.11v-.65h-.64c.03.23.01.44 0 .65h.64z" id="EW"/><path d="M139.85 88.01v-.64h-.63a3.29 3.29 0 0 1-.01.64h.64z" id="EX"/><path d="M139.63 89.91l.07-.63h-.64c.03.2 0 .41-.06.63h.63z" id="EY"/><path d="M138.52 93.67l.63.11.1-.63-.63-.11-.1.63z" id="EZ"/><path d="M139.44 91.88c0-.21 0-.43.09-.63l-.63-.08-.09.63.63.08z" id="Ea"/><path d="M139.92 80.4v-.63h-.64c-.01.22 0 .43.01.63h.63z" id="Eb"/><path d="M139.79 78.5v-.64c-.06.01-.57.05-.63.06-.05.23-.03.38 0 .58h.63z" id="Ec"/><path d="M139 76.61l.65-.07c0-.21-.06-.43-.09-.64-.04.01-.25.03-.63.08l.07.63z" id="Ed"/><path d="M139.99 82.3v-.64h-.64l.01.64h.63z" id="Ee"/><path d="M138.8 95.67l.12-.63-.62-.12-.13.62h0l.63.13z" id="Ef"/><path d="M140 84.22v-.64l-.63.03v.6h0l.63.01z" id="Eg"/><path d="M131.98 113.61l.32-.56-.56-.32-.3.56h0l.54.32z" id="Eh"/><path d="M133.23 109.93l.57.28.29-.58-.58-.27-.28.57z" id="Ei"/><path d="M132.92 111.92l.3-.57-.56-.29-.3.57h0l.56.29z" id="Ej"/><path d="M129.42 116.52l.53.36.36-.54-.54-.34-.35.52z" id="Ek"/><path d="M131 115.32c.1-.19.22-.37.33-.54l-.55-.34c-.09.12-.21.3-.33.54l.55.34z" id="El"/><path d="M134.63 108.47l.26-.59a14.76 14.76 0 0 1-.58-.26c-.06.23-.17.4-.26.59l.58.26z" id="Em"/><path d="M137.36 101.25c.08-.2.13-.4.19-.6l-.6-.18c-.06.25-.13.4-.19.61l.6.17z" id="En"/><path d="M137.82 97.41l.61.14.16-.62-.63-.14-.14.62z" id="Eo"/><path d="M137.9 99.41l.17-.61-.62-.17-.16.62.61.16z" id="Ep"/><path d="M136.77 103.1l.2-.61-.59-.2-.2.6.59.21z" id="Eq"/><path d="M134.81 106.46l.59.25.24-.6c-.04-.01-.23-.1-.58-.25l-.25.6z" id="Er"/><path d="M103.12 28.24l-.59-.24-.25.59.59.24.25-.59z" id="Es"/><path d="M134.35 58.14l-.28-.57-.57.27.26.57h0l.59-.27z" id="Et"/><path d="M43.53 36.8l-.39-.51-.5.4.39.5.5-.39z" id="Eu"/><path d="M42.04 37.99l-.4-.49-.49.4.42.49.47-.4z" id="Ev"/><path d="M37.4 41.4l-.45.45.45.44.45-.45-.45-.44z" id="Ew"/><path d="M43.02 130.04l-.49-.4-.4.5.5.4.39-.5z" id="Ex"/><path d="M44.67 35.14l-.51.38.38.51.51-.38h0l-.38-.51z" id="Ey"/><path d="M46.07 132.32l-.52-.36-.37.51.52.37.37-.52z" id="Ez"/><path d="M41.58 128.83l-.49-.41-.41.47.48.43.42-.49z" id="FA"/><path d="M39.2 40.51l-.44-.46-.46.44.45.46.45-.44z" id="FB"/><path d="M102.34 138.63l-.58.23.22.59.61-.23h0l-.25-.59z" id="FC"/><path d="M39.66 127.14l-.43.47.47.44.43-.48h0l-.47-.43z" id="FD"/><path d="M46.24 34.03l-.52.36.36.52.51-.36h0l-.35-.52z" id="FE"/><path d="M40.61 39.22l-.43-.47-.48.43.43.47.48-.43z" id="FF"/><path d="M44.03 130.82l-.39.51.51.38.38-.51h0l-.5-.38z" id="FG"/><path d="M52.58 136.27l-.56-.3-.29.56.56.31.29-.57z" id="FH"/><path d="M53.72 136.84l-.28.58.58.27.27-.57h0l-.57-.28z" id="FI"/><path d="M53.12 30.68l-.29-.56-.57.29.3.57.56-.3z" id="FJ"/><path d="M47.65 133.38l-.53-.34-.35.52.54.36.34-.54z" id="FK"/><path d="M54.55 29.28l-.57.27.28.57.57-.27h0l-.28-.57z" id="FL"/><path d="M56.02 137.92l-.57-.25-.28.57.6.26.25-.58z" id="FM"/><path d="M48.72 134.06l-.33.55.54.33.34-.55h0l-.55-.33z" id="FN"/><path d="M47.84 32.97l-.53.35.34.53.54-.34h0l-.35-.54z" id="FO"/><path d="M49.48 31.96l-.55.34.33.54.54-.33h0l-.32-.55z" id="FP"/><path d="M51.44 31.57l-.3-.56-.55.31.31.56.54-.31z" id="FQ"/><path d="M50.91 135.37l-.55-.32-.32.54.56.32.31-.54z" id="FR"/><path d="M36.53 43.22l-.46-.44-.44.47.47.43.43-.46z" id="FS"/><path d="M21.66 69.64l-.15.63.62.14.14-.63h0l-.61-.14z" id="FT"/><path d="M21.24 71.52l-.12.63.62.11.13-.61h0l-.63-.13z" id="FU"/><path d="M22.13 67.77l-.16.62.61.17.17-.62h0l-.62-.17z" id="FV"/><path d="M23.87 64.3l-.6-.21-.21.62.6.2.21-.61z" id="FW"/><path d="M23.27 66.12l-.6-.19-.18.62.6.18.18-.61z" id="FX"/><path d="M23.93 62.28l-.23.6.59.22.23-.59h0l-.59-.23z" id="FY"/><path d="M21.51 73.51l-.63-.1-.1.64.63.09.1-.63z" id="FZ"/><path d="M20.59 75.31c0 .21-.06.42-.09.64l.63.07.09-.62-.63-.09z" id="Fa"/><path d="M20.66 82.98l-.63-.01-.01.72h.64 0v-.71z" id="Fb"/><path d="M20.08 81.06l-.03.63.64.02.03-.63h0l-.64-.02z" id="Fc"/><path d="M20.18 79.13l-.03.64.63.04.04-.63h0l-.64-.05z" id="Fd"/><path d="M20.36 77.22l-.07.64.64.06.06-.63-.63-.07z" id="Fe"/><path d="M32.34 47.18l-.38.53c.05.03.46.34.51.38.12-.18.25-.35.38-.51l-.51-.4z" id="Ff"/><path d="M31.71 49.11l-.51-.37-.37.52c.03.03.21.15.52.36l.36-.51z" id="Fg"/><path d="M56.55 29.08l-.25-.59-.58.25.26.59.57-.25z" id="Fh"/><path d="M33.54 45.67l-.41.5.5.41.39-.5h0l-.48-.41z" id="Fi"/><path d="M30.63 50.68l-.53-.36-.35.53.53.35.35-.52z" id="Fj"/><path d="M24.64 60.49l-.24.59.58.24.25-.58h0l-.59-.25z" id="Fk"/><path d="M35.26 44.63l-.49-.42-.41.49c.03.03.19.16.48.4l.42-.47z" id="Fl"/><path d="M25.99 58.98l-.58-.26-.26.59c.04.02.23.1.58.25l.26-.58z" id="Fm"/><path d="M26.81 57.27l-.57-.28-.28.57.57.28.28-.57z" id="Fn"/><path d="M28.62 53.91l-.56-.32-.32.56.56.3.32-.54z" id="Fo"/><path d="M27.68 55.57l-.56-.3-.3.56.56.3.3-.56z" id="Fp"/><path d="M29.06 51.94l-.35.54.55.34.33-.55c-.07-.05-.25-.16-.53-.33z" id="Fq"/><path d="M38.74 126.28l-.46-.45-.44.45c.18.15.3.31.45.45l.45-.45z" id="Fr"/><path d="M91.54 142.51l-.12-.63-.63.12.12.63.63-.12z" id="Fs"/><path d="M86.4 23.96h-.65l-.06.63h.63l.08-.63z" id="Ft"/><path d="M88.3 24.19l-.63-.08-.09.63.63.08.09-.63z" id="Fu"/><path d="M90.2 24.48l-.63-.1-.11.62.63.11.11-.63z" id="Fv"/><path d="M89.65 142.84l-.11-.63-.63.09.1.63.64-.09z" id="Fw"/><path d="M85.78 142.7l-.63.06.05.63.64-.06h0l-.06-.63z" id="Fx"/><path d="M87.74 143.11l-.07-.63-.63.09.07.63.63-.09z" id="Fy"/><path d="M80.63 23.62h-.64l.03.63.61.01h0v-.64z" id="Fz"/><path d="M81.98 143.58v-.63h-.63v.64l.63-.01z" id="GA"/><path d="M81.92 23.65l-.03.64.64.02.03-.64h0l-.64-.02z" id="GB"/><path d="M83.91 143.49v-.63h-.63v.64l.63-.01z" id="GC"/><path d="M84.47 23.79h-.63v.63h.63v-.63z" id="GD"/><path d="M100.79 139.93l-.22-.6-.59.22.21.59.6-.21z" id="GE"/><path d="M97.67 26.26l-.61-.18-.17.61.6.18.18-.61z" id="GF"/><path d="M98.98 140.55l-.2-.6-.61.19.19.61.62-.2z" id="GG"/><path d="M91.46 24.72l-.12.61.63.13.12-.63h0l-.63-.11z" id="GH"/><path d="M100.72 27.29l-.21.6.59.22.23-.59h0l-.61-.23z" id="GI"/><path d="M57.77 138.67l-.58-.24-.25.58.6.25.23-.59z" id="GJ"/><path d="M99.51 26.87l-.6-.22-.21.61.61.2.2-.59z" id="GK"/><path d="M93.42 142.1l-.15-.62-.61.15.14.62.62-.15z" id="GL"/><path d="M97.14 141.12l-.18-.61-.61.18.18.6.61-.17z" id="GM"/><path d="M93.35 25.11l-.15.62.62.14.14-.62h0l-.61-.14z" id="GN"/><path d="M95.29 141.65l-.16-.62-.62.16.15.62.63-.16z" id="GO"/><path d="M95.83 25.73l-.62-.17-.17.62.62.16.17-.61z" id="GP"/><path d="M79.44 142.97l-.01.63.64.01-.05-.64h0-.58z" id="GQ"/><path d="M63.55 25.9l-.62.19.18.61.6-.18h0l-.16-.62z" id="GR"/><path d="M63.18 140.56l-.61-.19-.19.6.62.19.18-.6z" id="GS"/><path d="M64.4 140.9l-.16.61.62.16.16-.61h0l-.62-.16z" id="GT"/><path d="M67.41 25.6l-.14-.62-.62.14.14.62.62-.14z" id="GU"/><path d="M65.56 26.03l-.16-.61-.63.15.17.62.62-.16z" id="GV"/><path d="M66.86 141.51l-.61-.14-.15.61.62.16.14-.63z" id="GW"/><path d="M59.56 139.36l-.6-.23-.22.6.6.22.22-.59z" id="GX"/><path d="M58.08 27.76l-.59.24.24.59.58-.24h0l-.23-.59z" id="GY"/><path d="M61.9 27.06l-.19-.62-.62.2.2.61.61-.19z" id="GZ"/><path d="M61.36 139.99l-.6-.2-.21.59.61.21.2-.6z" id="Ga"/><path d="M59.88 27.08l-.6.23.22.59.59-.21h0l-.21-.61z" id="Gb"/><path d="M75.64 142.82l-.04.63.64.04.03-.64h0l-.63-.03z" id="Gc"/><path d="M78.72 24.28v-.65h-.64v.65h.64z" id="Gd"/><path d="M74.93 24.48v-.64l-.64.06.06.63.58-.05z" id="Ge"/><path d="M78.17 142.95h-.64v.64h.64v-.64z" id="Gf"/><path d="M74.37 142.71l-.63-.06v.63l.63.06v-.63z" id="Gg"/><path d="M76.82 24.34v-.63h-.64v.64l.64-.01z" id="Gh"/><path d="M70.61 142.23l-.63-.1-.11.63.63.1.11-.63z" id="Gi"/><path d="M69.16 24.6l-.63.12.12.63.62-.12h0l-.11-.63z" id="Gj"/><path d="M68.73 141.9l-.63-.12-.12.62.63.13.12-.63z" id="Gk"/><path d="M72.47 142.51l-.63-.09-.08.63.63.09.08-.63z" id="Gl"/><path d="M72.96 24.03l-.63.08.07.63.64-.08h0l-.08-.63z" id="Gm"/><path d="M71.06 24.29l-.63.09.09.63.63-.09h0l-.09-.63z" id="Gn"/><path d="M51.23 35.42a54.04 54.04 0 0 0-6.44 4.48 6.48 6.48 0 0 0 .24.31c2.02-1.63 4.16-3.12 6.4-4.46l-.2-.33z" id="Go"/><path d="M68.72 28.64c-2.57.52-5.1 1.23-7.57 2.1.01.04.12.33.13.37 2.45-.87 4.96-1.57 7.51-2.08l-.07-.39z" id="Gp"/><path d="M78.08 27.54c-2.62.09-5.23.36-7.81.81.01.04.07.34.07.38a55.93 55.93 0 0 1 7.74-.79v-.4z" id="Gq"/><path d="M27.45 63.76c-.92 2.45-1.67 4.96-2.24 7.52l.38.09a57.37 57.37 0 0 1 2.23-7.48l-.37-.13z" id="Gr"/><path d="M24.89 72.87c-.5 2.57-.82 5.18-.95 7.79h.39a55.73 55.73 0 0 1 .94-7.72l-.38-.07z" id="Gs"/><path d="M126.37 52.15a54.41 54.41 0 0 0-4.84-6.18c-.03.03-.26.24-.29.26 1.72 1.94 3.31 3.98 4.75 6.13l.38-.21z" id="Gt"/><path d="M134.16 69.21a56.89 56.89 0 0 0-2.53-7.42c-.04.01-.34.13-.37.15 1.01 2.39 1.86 4.86 2.53 7.37l.37-.1z" id="Gu"/><path d="M135.83 78.53a56.27 56.27 0 0 0-1.26-7.76l-.38.09a55.47 55.47 0 0 1 1.25 7.67h.39z" id="Gv"/><path d="M120.46 44.82c-1.82-1.89-3.76-3.65-5.81-5.28a6.48 6.48 0 0 0-.24.31 58.41 58.41 0 0 1 5.76 5.24l.29-.27z" id="Gw"/><path d="M105.39 33.62c-2.33-1.19-4.74-2.22-7.22-3.07-.01.04-.12.33-.13.37a56.55 56.55 0 0 1 7.13 3.04 10.06 10.06 0 0 1 .22-.34z" id="Gx"/><path d="M113.4 38.58c-2.1-1.56-4.31-2.97-6.61-4.23-.01.04-.17.31-.19.35 2.29 1.24 4.48 2.65 6.56 4.2a8.89 8.89 0 0 0 .24-.32z" id="Gy"/><path d="M96.67 30.05a58.51 58.51 0 0 0-7.64-1.81c0 .04-.06.36-.07.4 2.57.41 5.11 1.01 7.59 1.79.03-.08.1-.3.12-.38z" id="Gz"/><path d="M111.14 130.21c2.18-1.47 4.25-3.08 6.2-4.82-.02-.03-.23-.26-.26-.29a56.86 56.86 0 0 1-6.15 4.78l.21.33z" id="HA"/><path d="M84.72 139.48a58.18 58.18 0 0 0 7.76-1.19l-.1-.38a53.47 53.47 0 0 1-7.66 1.17v.4z" id="HB"/><path d="M75.37 139.5l4.61.18 3.24-.1v-.38c-2.61.15-5.24.12-7.85-.09v.39z" id="HC"/><path d="M129.84 109.32a56.03 56.03 0 0 0 3.12-7.21c-.04-.01-.33-.12-.37-.13a56 56 0 0 1-3.09 7.16l.34.18z" id="HD"/><path d="M118.5 124.33a58.21 58.21 0 0 0 5.31-5.79 6.48 6.48 0 0 1-.31-.24c-1.62 2.04-3.39 3.96-5.28 5.74l.28.29z" id="HE"/><path d="M133.43 100.61a55.27 55.27 0 0 0 1.84-7.62c-.03-.01-.34-.07-.38-.08a54.69 54.69 0 0 1-1.83 7.58l.37.12z" id="HF"/><path d="M124.77 117.29c1.58-2.09 3-4.29 4.28-6.58l-.35-.19c-1.26 2.28-2.68 4.47-4.24 6.55l.31.22z" id="HG"/><path d="M66.04 137.94a56.19 56.19 0 0 0 7.73 1.41v-.4c-2.59-.28-5.16-.74-7.68-1.39l-.05.38z" id="HH"/><path d="M43.58 40.91c-2 1.7-3.87 3.53-5.61 5.49.03.03.27.23.3.26 1.72-1.94 3.58-3.77 5.56-5.45l-.25-.3z" id="HI"/><path d="M30.19 109.49c1.2 2.32 2.57 4.56 4.1 6.69l.32-.23c-1.51-2.12-2.87-4.34-4.08-6.64l-.34.18z" id="HJ"/><path d="M26.55 100.8a55.98 55.98 0 0 0 2.92 7.29l.36-.17c-1.14-2.34-2.11-4.76-2.91-7.24-.07.03-.3.1-.37.12z" id="HK"/><path d="M35.22 117.45c1.58 2.1 3.31 4.08 5.16 5.94l.29-.27c-1.85-1.84-3.56-3.8-5.14-5.87l-.31.2z" id="HL"/><path d="M41.51 124.48c1.91 1.79 3.94 3.45 6.08 4.97l.23-.32c-2.13-1.5-4.14-3.15-6.04-4.93l-.27.28z" id="HM"/><path d="M57.14 134.86c2.4 1.06 4.87 1.95 7.39 2.68.02-.04.1-.34.11-.38-2.5-.71-4.95-1.6-7.33-2.66l-.17.36z" id="HN"/><path d="M24.44 91.63c.37 2.59.92 5.16 1.65 7.68l.38-.11a55.15 55.15 0 0 1-1.65-7.63l-.38.06z" id="HO"/><path d="M81.69 24.8c-2.13-.06-4.27-.01-6.39.15l.19 2.38 6.13-.15.07-2.38z" id="HP"/><path d="M64.3 26.91c-2.06.57-4.07 1.25-6.05 2.04l.87 2.17a59.13 59.13 0 0 1 5.81-1.95l-.63-2.26z" id="HQ"/><path d="M23.5 83.6c0-1.98.1-3.97.31-5.94l-2.38-.25c-.22 2.07-.33 4.15-.33 6.23v.14h2.37l.03-.18z" id="HR"/><path d="M114.48 36.02c-1.72-1.26-3.52-2.42-5.37-3.47l-1.19 2.03c1.78 1.02 3.49 2.13 5.15 3.34l1.41-1.9z" id="HS"/><path d="M131.7 55.64a58.44 58.44 0 0 0-3.34-5.45l-1.94 1.34c1.17 1.68 2.24 3.43 3.21 5.23l2.07-1.12z" id="HT"/><path d="M137.63 72.16c-.42-2.09-.95-4.16-1.58-6.19l-2.25.7c.61 1.96 1.12 3.94 1.52 5.95l2.31-.46z" id="HU"/><path d="M121.18 41.69a57.83 57.83 0 0 0-4.75-4.23l-1.45 1.85a55.39 55.39 0 0 1 4.6 4.06l1.6-1.68z" id="HV"/><path d="M29.95 52.64c-1.12 1.81-2.15 3.68-3.07 5.6L29 59.27a55.18 55.18 0 0 1 2.95-5.39l-2-1.24z" id="HW"/><path d="M118.47 128.01a60.13 60.13 0 0 0 4.59-4.44l-1.72-1.61-4.41 4.28 1.54 1.77z" id="HX"/><path d="M124.65 121.77c1.39-1.62 2.68-3.31 3.89-5.07l-1.95-1.32c-1.16 1.69-2.4 3.32-3.72 4.87l1.78 1.52z" id="HY"/><path d="M95.42 140.33c2.06-.56 4.08-1.23 6.06-2.02l-.85-2.18c-1.91.75-3.85 1.39-5.82 1.93l.61 2.27z" id="HZ"/><path d="M103.69 137.4c1.95-.87 3.85-1.83 5.69-2.9l-1.18-2.03c-1.77 1.02-3.59 1.95-5.46 2.78l.95 2.15z" id="Ha"/><path d="M21.18 86.15c.09 2.13.3 4.25.62 6.36l2.38-.34c-.32-2.03-.53-4.07-.62-6.11l-2.38.09z" id="Hb"/><path d="M133.93 106.91a58.26 58.26 0 0 0 2.21-6l-2.24-.69a58.42 58.42 0 0 1-2.13 5.76l2.16.93z" id="Hc"/><path d="M136.79 98.62a58.44 58.44 0 0 0 1.3-6.26l-2.38-.35a53.04 53.04 0 0 1-1.19 6l2.27.61z" id="Hd"/><path d="M38.59 125.39a59.86 59.86 0 0 0 4.75 4.24l1.47-1.83c-1.6-1.28-3.14-2.64-4.6-4.08l-1.62 1.67z" id="He"/><path d="M22.23 94.87c.4 2.1.91 4.17 1.53 6.21l2.24-.7c-.6-1.96-1.08-3.95-1.46-5.96l-2.31.45z" id="Hf"/><path d="M69.3 141.43a58.73 58.73 0 0 0 6.34.8l.17-2.37c-2.04-.15-4.07-.4-6.08-.78l-.43 2.35z" id="Hg"/><path d="M60.8 139.2c2.02.7 4.08 1.28 6.16 1.75l.51-2.29c-2.01-.45-3.99-1.01-5.94-1.68l-.73 2.22z" id="Hh"/><path d="M52.74 135.73c1.88.99 3.82 1.88 5.81 2.65l.85-2.19a57.25 57.25 0 0 1-5.58-2.55l-1.08 2.09z" id="Hi"/><path d="M39.89 42.44l2.31-2.11c-.03-.03-.24-.27-.26-.3l-2.32 2.14.27.27z" id="Hj"/><path d="M34.69 48.25l1.98-2.37c-.02-.03-.25-.24-.28-.26L34.38 48l.31.25z" id="Hk"/><path d="M38.73 124.14l2.26 2.17a6.64 6.64 0 0 1 .26-.28L39 123.86c-.05.06-.22.22-.27.28z" id="Hl"/><path d="M65.64 139.63l3.06.69.08-.38-3.05-.69c-.01.08-.07.31-.09.38z" id="Hm"/><path d="M44.6 129.35l2.53 1.86.22-.32-2.51-1.84-.24.3z" id="Hn"/><path d="M33.61 118.19l1.95 2.46c.03-.03.26-.23.29-.25l-1.92-2.45c-.06.05-.26.19-.32.24z" id="Ho"/><path d="M23.69 97l.81 3.03.38-.11-.81-3.01-.38.09z" id="Hp"/><path d="M22.57 83.6v-2.17h-.39v2.18.95h.39v-.96z" id="Hq"/><path d="M22.96 76.71l.45-3.09h-.39a23.21 23.21 0 0 0-.45 3.09h.39z" id="Hr"/><path d="M29.34 111.59l1.61 2.71.33-.21-1.59-2.69-.35.19z" id="Hs"/><path d="M24.37 69.09l.86-2.99-.37-.12-.88 3.02.39.09z" id="Ht"/><path d="M127.73 116.15l1.7-2.65c-.04-.02-.3-.18-.33-.2l-1.7 2.63.33.22z" id="Hu"/><path d="M117.93 40.54l2.28 2.13.28-.27-2.3-2.16-.26.3z" id="Hv"/><path d="M90.17 27.06l3.06.63.09-.38-3.08-.65-.07.4z" id="Hw"/><path d="M81.19 141.4l3.14-.15v-.39l-3.14.15v.39z" id="Hx"/><path d="M96.67 138.95l2.98-.98c-.01-.04-.11-.33-.13-.37l-2.95.97.1.38z" id="Hy"/><path d="M82.43 26.22c1.03 0 2.08.12 3.11.23v-.39l-3.14-.22.03.38z" id="Hz"/><path d="M97.74 28.99l2.95 1.05c.01-.04.12-.33.13-.37l-2.96-1.06a4.22 4.22 0 0 1-.12.38z" id="IA"/><path d="M110.91 132.43l2.6-1.76c-.03-.03-.21-.29-.23-.32l-2.59 1.75c.04.07.19.3.22.33z" id="IB"/><path d="M104.01 136.17l2.82-1.37-.18-.35-2.8 1.37.16.35z" id="IC"/><path d="M78.77 19.75v1.1h-1.11v-1.1h1.11z" id="ID"/><path d="M78.57 21.25v.69h-.69v-.69h.69z" id="IE"/><path d="M78.49 22.32v.54h-.54v-.54h.54z" id="IF"/><path d="M80.56 19.75v1.1h-1.1v-1.1h1.1z" id="IG"/><path d="M80.36 21.25v.69h-.69v-.69h.69z" id="IH"/><path d="M80.29 22.32v.54h-.55v-.54h.55z" id="II"/><path d="M82.37 19.75v1.1h-1.11v-1.1h1.11z" id="IJ"/><path d="M82.17 21.25v.69h-.69v-.69h.69z" id="IK"/><path d="M82.09 22.32v.54h-.54v-.54h.54z" id="IL"/><path d="M57.01 24.03l.38 1.03-1.04.38-.38-1.04 1.04-.37z" id="IM"/><path d="M57.32 25.5l.24.64-.65.24-.24-.65.65-.23z" id="IN"/><path d="M57.63 26.53l.18.51-.51.19-.19-.51.52-.19z" id="IO"/><path d="M58.69 23.43l.38 1.04-1.04.38-.37-1.04 1.03-.38z" id="IP"/><path d="M59.01 24.89l.24.65-.65.23-.23-.64.64-.24z" id="IQ"/><path d="M59.31 25.93l.19.51-.52.19-.18-.51.51-.19z" id="IR"/><path d="M60.39 22.78l.38 1.04-1.04.38-.38-1.04 1.04-.38z" id="IS"/><path d="M60.71 24.26l.23.65-.64.24-.24-.65.65-.24z" id="IT"/><path d="M60.99 25.31l.19.51-.51.19-.19-.52.51-.18z" id="IU"/><path d="M38.01 35.51l.71.85-.85.71-.71-.85.85-.71z" id="IV"/><path d="M38.81 36.79l.44.53-.52.44-.45-.52.53-.45z" id="IW"/><path d="M39.45 37.62l.35.42-.42.35-.35-.42.42-.35z" id="IX"/><path d="M39.39 34.36l.71.84-.85.71-.71-.84.85-.71z" id="IY"/><path d="M40.19 35.6l.44.53-.53.44-.44-.53.53-.44z" id="IZ"/><path d="M40.83 36.46l.35.42-.42.35-.35-.42.42-.35z" id="Ia"/><path d="M40.76 33.2l.71.84-.84.71-.71-.84.84-.71z" id="Ib"/><path d="M41.57 34.45l.45.52-.53.45-.45-.53.53-.44z" id="Ic"/><path d="M42.2 35.3l.35.42-.41.35-.36-.42.42-.35z" id="Id"/><path d="M24.09 52.76l.96.55-.55.96-.96-.55.55-.96z" id="Ie"/><path d="M25.27 53.66l.59.35-.34.59-.6-.34.35-.6z" id="If"/><path d="M26.16 54.28l.47.28-.27.47-.47-.27.27-.48z" id="Ig"/><path d="M24.99 51.21l.96.56-.55.95-.96-.55.55-.96z" id="Ih"/><path d="M26.17 52.11l.6.35-.34.59-.6-.34.34-.6z" id="Ii"/><path d="M27.07 52.72l.47.28-.27.47-.47-.27.27-.48z" id="Ij"/><path d="M25.89 49.66l.95.55-.55.96-.96-.56.56-.95z" id="Ik"/><path d="M27.07 50.55l.6.35-.35.59-.59-.34.34-.6z" id="Il"/><path d="M27.96 51.17l.47.27-.27.48-.48-.28.28-.47z" id="Im"/><path d="M16.91 73.76l1.09.19-.19 1.09-1.09-.19.19-1.09z" id="In"/><path d="M18.33 74.2l.68.12-.12.68-.68-.12.12-.68z" id="Io"/><path d="M19.4 74.48l.54.09-.1.54-.54-.09.1-.54z" id="Ip"/><path d="M17.22 71.97l1.09.19-.19 1.09-1.09-.19.19-1.09z" id="Iq"/><path d="M18.65 72.42l.68.12-.12.68-.68-.12.12-.68z" id="Ir"/><path d="M19.72 72.71l.54.1-.1.54-.54-.1.1-.54z" id="Is"/><path d="M17.53 70.21l1.09.19-.19 1.09-1.09-.2.19-1.08z" id="It"/><path d="M17.39 70.62l.67.12-.11.68-.68-.12.12-.68z" id="Iu"/><path d="M20.01 70.93l.54.09-.1.54-.53-.1.09-.53z" id="Iv"/><path d="M18.43 95.74l.19 1.09-1.09.19-.19-1.09 1.09-.19z" id="Iw"/><path d="M19.54 95.75l.12.68-.68.12-.12-.68.68-.12z" id="Ix"/><path d="M18.85 95.1l.09.54-.53.09-.09-.54.53-.09z" id="Iy"/><path d="M18.12 93.97l.2 1.08-1.09.2-.19-1.09 1.08-.19z" id="Iz"/><path d="M19.21 94l.12.68-.68.11-.12-.67.68-.12z" id="JA"/><path d="M20.15 93.89l.1.53-.54.1-.1-.54.54-.09z" id="JB"/><path d="M17.8 92.2l.19 1.08-1.09.2-.19-1.09 1.09-.19z" id="JC"/><path d="M18.88 92.24l.12.67-.67.12-.12-.68.67-.11z" id="JD"/><path d="M19.84 92.12l.09.53-.54.1-.09-.54.54-.09z" id="JE"/><path d="M26.29 116.06l.55.96-.95.55-.55-.96.95-.55z" id="JF"/><path d="M27.34 115.71l.34.59-.6.35-.34-.6.6-.34z" id="JG"/><path d="M28.17 115.32l.27.48-.47.27-.28-.47.48-.28z" id="JH"/><path d="M25.4 114.51l.55.96-.96.55-.55-.95.96-.56z" id="JI"/><path d="M26.44 114.14l.34.6-.59.35-.35-.6.6-.35z" id="JJ"/><path d="M27.27 113.75l.27.48-.47.27-.27-.47.47-.28z" id="JK"/><path d="M24.49 112.96l.55.96-.96.55-.55-.95.96-.56z" id="JL"/><path d="M25.52 112.63l.34.6-.59.34-.35-.6.6-.34z" id="JM"/><path d="M26.38 112.2l.27.48-.47.27-.28-.47.48-.28z" id="JN"/><path d="M40.63 132.47l.85.71-.71.85-.85-.71.71-.85z" id="JO"/><path d="M41.48 131.79l.53.44-.44.53-.53-.44.44-.53z" id="JP"/><path d="M42.13 131.17l.42.35-.35.42-.42-.35.35-.42z" id="JQ"/><path d="M39.25 131.34l.85.71-.71.85-.85-.71.71-.85z" id="JR"/><path d="M40.1 130.67l.53.44-.44.53-.53-.45.44-.52z" id="JS"/><path d="M40.75 130l.41.35-.35.42-.42-.35.36-.42z" id="JT"/><path d="M37.87 130.19l.84.71-.71.84-.84-.71.71-.84z" id="JU"/><path d="M38.74 129.47l.53.45-.45.52-.52-.44.44-.53z" id="JV"/><path d="M39.38 128.85l.41.35-.35.42-.42-.35.36-.42z" id="JW"/><path d="M59.73 143.04l1.04.38-.38 1.04-1.04-.38.38-1.04z" id="JX"/><path d="M60.29 142.07l.65.24-.24.65-.65-.24.24-.65z" id="JY"/><path d="M60.67 141.22l.51.19-.19.51-.51-.18.19-.52z" id="JZ"/><path d="M58.04 142.4l1.04.38-.38 1.03-1.04-.37.38-1.04z" id="Ja"/><path d="M58.6 141.45l.64.24-.23.64-.65-.23.24-.65z" id="Jb"/><path d="M58.98 140.61l.51.19-.19.51-.51-.18.19-.52z" id="Jc"/><path d="M56.35 141.78l1.04.37-.38 1.04-1.04-.38.38-1.03z" id="Jd"/><path d="M56.91 140.83l.65.24-.23.65-.65-.24.23-.65z" id="Je"/><path d="M57.3 140.01l.51.19-.19.52-.51-.19.19-.52z" id="Jf"/><path d="M82.37 146.37v1.1h-1.11v-1.1h1.11z" id="Jg"/><path d="M82.17 145.3v.69h-.69v-.69h.69z" id="Jh"/><path d="M82.09 144.37v.55h-.54v-.55h.54z" id="Ji"/><path d="M80.56 146.37v1.1h-1.1v-1.1h1.1z" id="Jj"/><path d="M80.36 145.3v.69h-.69v-.69h.69z" id="Jk"/><path d="M80.29 144.37v.55h-.55v-.55h.55z" id="Jl"/><path d="M78.77 146.37v1.1h-1.11v-1.1h1.11z" id="Jm"/><path d="M78.57 145.3v.69h-.69v-.69h.69z" id="Jn"/><path d="M78.49 144.37v.55h-.54v-.55h.54z" id="Jo"/><path d="M103.69 141.77l.38 1.04-1.04.38-.38-1.04 1.04-.38z" id="Jp"/><path d="M103.15 140.82l.23.65-.64.24-.24-.65.65-.24z" id="Jq"/><path d="M102.76 139.97l.18.51-.51.19-.19-.52.52-.18z" id="Jr"/><path d="M102.02 142.37l.38 1.04-1.04.38-.38-1.04 1.04-.38z" id="Js"/><path d="M101.43 141.47l.24.64-.65.24-.24-.65.65-.23z" id="Jt"/><path d="M101.05 140.61l.19.52-.52.19-.18-.52.51-.19z" id="Ju"/><path d="M100.31 142.99l.38 1.04-1.04.38-.38-1.04 1.04-.38z" id="Jv"/><path d="M99.75 142.07l.23.65-.64.23-.24-.65.65-.23z" id="Jw"/><path d="M99.36 141.23l.18.51-.51.19-.19-.51.52-.19z" id="Jx"/><path d="M122.15 130.16l.71.85-.84.71-.71-.85.84-.71z" id="Jy"/><path d="M121.32 129.49l.44.53-.53.44-.44-.52.53-.45z" id="Jz"/><path d="M120.67 128.8l.35.42-.42.35-.35-.42.42-.35z" id="KA"/><path d="M120.78 131.33l.71.85-.85.71-.71-.85.85-.71z" id="KB"/><path d="M119.94 130.63l.44.52-.53.45-.44-.53.53-.44z" id="KC"/><path d="M119.28 129.95l.35.42-.42.35-.35-.42.42-.35z" id="KD"/><path d="M119.39 132.51l.71.84-.84.71-.71-.84.84-.71z" id="KE"/><path d="M118.55 131.78l.45.52-.53.45-.45-.53.53-.44z" id="KF"/><path d="M117.92 131.11l.35.42-.42.35-.35-.42.42-.35z" id="KG"/><path d="M135.54 112.94l.95.55-.55.96-.96-.55.56-.96z" id="KH"/><path d="M134.52 112.61l.59.34-.34.6-.6-.35.35-.59z" id="KI"/><path d="M133.67 112.19l.47.28-.27.47-.47-.27.27-.48z" id="KJ"/><path d="M134.64 114.52l.95.56-.55.95-.95-.55.55-.96z" id="KK"/><path d="M134.62 113.1l.6.35-.34.6-.6-.35.34-.6z" id="KL"/><path d="M133.8 112.75l.48.28-.28.47-.47-.27.27-.48z" id="KM"/><path d="M133.74 116.08l.96.56-.56.95-.95-.55.55-.96z" id="KN"/><path d="M132.7 115.7l.6.35-.35.6-.6-.35.35-.6z" id="KO"/><path d="M131.86 115.31l.47.27-.27.47-.47-.27.27-.47z" id="KP"/><path d="M142.22 92.2l1.09.19-.19 1.09-1.09-.2.19-1.08z" id="KQ"/><path d="M141.12 92.18l.68.12-.12.68-.68-.12.12-.68z" id="KR"/><path d="M140.21 92.13l.54.09-.1.54-.54-.1.1-.53z" id="KS"/><path d="M141.9 93.96l1.09.19-.19 1.09-1.09-.19.19-1.09z" id="KT"/><path d="M140.81 93.97l.67.12-.12.68-.67-.12.12-.68z" id="KU"/><path d="M139.9 93.9l.54.1-.1.53-.54-.09.1-.54z" id="KV"/><path d="M141.6 95.74l1.09.19-.2 1.09-1.08-.2.19-1.08z" id="KW"/><path d="M138.35 96.2l.67.12-.12.67-.67-.12.12-.67z" id="KX"/><path d="M139.59 95.67l.54.09-.09.54-.54-.09.09-.54z" id="KY"/><path d="M142.5 70.2l.19 1.09-1.09.19-.19-1.09 1.09-.19z" id="KZ"/><path d="M141.08 70.65l.12.68-.68.12-.12-.68.68-.12z" id="Ka"/><path d="M140.02 70.94l.1.53-.54.1-.1-.54.54-.09z" id="Kb"/><path d="M142.81 71.98l.19 1.09-1.09.19-.19-1.09 1.09-.19z" id="Kc"/><path d="M141.37 72.46l.12.68-.68.12-.12-.68.68-.12z" id="Kd"/><path d="M140.35 72.68l.09.54-.54.1-.09-.54.54-.1z" id="Ke"/><path d="M143.12 73.75l.19 1.09-1.09.19-.19-1.08 1.09-.2z" id="Kf"/><path d="M141.69 74.23l.12.68-.68.12-.12-.68.68-.12z" id="Kg"/><path d="M140.66 74.47l.1.54-.54.09-.1-.54.54-.09z" id="Kh"/><path d="M134.14 49.63l.55.96-.96.55-.55-.96.96-.55z" id="Ki"/><path d="M132.96 50.55l.35.6-.6.34-.34-.59.59-.35z" id="Kj"/><path d="M132.06 51.17l.28.48-.48.27-.27-.47.47-.28z" id="Kk"/><path d="M135.05 51.2l.55.96-.95.55-.56-.95.96-.56z" id="Kl"/><path d="M133.86 52.12l.34.59-.6.35-.34-.6.6-.34z" id="Km"/><path d="M132.97 52.72l.27.48-.47.27-.28-.47.48-.28z" id="Kn"/><path d="M135.95 52.76l.55.96-.96.55-.55-.95.96-.56z" id="Ko"/><path d="M134.76 53.68l.35.6-.6.34-.34-.6.59-.34z" id="Kp"/><path d="M133.86 54.28l.27.48-.47.27-.27-.47.47-.28z" id="Kq"/><path d="M119.26 33.17l.85.71-.71.85-.85-.71.71-.85z" id="Kr"/><path d="M118.47 34.44l.53.45-.45.52-.52-.44.44-.53z" id="Ks"/><path d="M117.84 35.34l.42.35-.35.42-.42-.35.35-.42z" id="Kt"/><path d="M120.64 34.34l.84.71-.71.85-.84-.71.71-.85z" id="Ku"/><path d="M119.85 35.59l.52.44-.44.53-.53-.44.45-.53z" id="Kv"/><path d="M119.22 36.49l.41.35-.35.42-.42-.35.36-.42z" id="Kw"/><path d="M122 35.47l.85.71-.71.85-.85-.71.71-.85z" id="Kx"/><path d="M121.23 36.79l.53.44-.44.53-.53-.44.44-.53z" id="Ky"/><path d="M120.59 37.65l.42.35-.35.42-.42-.36.35-.41z" id="Kz"/><path d="M99.66 22.82l1.03.38-.37 1.03-1.04-.37.38-1.04z" id="LA"/><path d="M99.34 24.27l.65.24-.24.65-.65-.24.24-.65z" id="LB"/><path d="M99.02 25.3l.52.19-.19.51-.51-.19.18-.51z" id="LC"/><path d="M101.34 23.42l1.04.37-.38 1.04-1.04-.38.38-1.03z" id="LD"/><path d="M101.03 24.88l.65.23-.24.65-.65-.24.24-.64z" id="LE"/><path d="M100.72 25.91l.51.19-.18.51-.52-.19.19-.51z" id="LF"/><path d="M103.02 24.03l1.04.38-.38 1.04-1.04-.38.38-1.04z" id="LG"/><path d="M102.26 25.04l.65.23-.23.65-.65-.24.23-.64z" id="LH"/><path d="M102.42 26.54l.52.19-.19.51-.51-.18.18-.52z" id="LI"/><path d="M40.05 58.48C53.9 36.41 83.02 29.75 105.09 43.6a47.19 47.19 0 0 1 14.88 14.88c.03-.02.3-.16.33-.18-13.92-22.25-43.24-29-65.49-15.08A47.52 47.52 0 0 0 39.73 58.3c.06.04.25.15.32.18z" id="LJ"/><path d="M121.76 61.51c12.19 23.05 3.4 51.61-19.65 63.8-6.28 3.32-13.23 5.18-20.32 5.45v.36c26.23-.91 46.75-22.92 45.83-49.16a47.71 47.71 0 0 0-5.53-20.64l-.33.19z" id="LK"/><path d="M78.23 130.8c-26.05-.95-46.39-22.85-45.44-48.9a47.36 47.36 0 0 1 5.48-20.39c-.04-.02-.29-.17-.33-.19-12.31 23.18-3.51 51.95 19.66 64.27a47.43 47.43 0 0 0 20.63 5.53v-.32z" id="LL"/><path d="M82.81 41.54h-.83v3.91h.38c3.65.22 7.25.96 10.69 2.2l.28-.78a38.94 38.94 0 0 0-10.51-2.22l-.01-3.11z" id="LM"/><path d="M77.22 44.68c-3.59.24-7.13.99-10.51 2.22l.28.77a38.39 38.39 0 0 1 10.7-2.2h.39v-3.91h-.86v3.12z" id="LN"/><path d="M45.8 100.65a38.59 38.59 0 0 1-3.44-10.34c-.08.02-.72.13-.8.14.63 3.55 1.75 6.98 3.34 10.21l-2.73 1.57.42.71 3.39-1.95c-.1-.18-.16-.3-.18-.34z" id="LO"/><path d="M47.95 104.4l-3.39 1.96.42.72 2.71-1.57a38.45 38.45 0 0 0 7.13 7.99l.53-.63a38.17 38.17 0 0 1-7.19-8.13l-.21-.34z" id="LP"/><path d="M111.87 104.74c-2.02 3.04-4.45 5.78-7.24 8.13a16.04 16.04 0 0 0 .53.63 38.72 38.72 0 0 0 7.18-7.99c.18.1 1.09.63 2.71 1.57l.42-.72-3.39-1.96-.21.34z" id="LQ"/><path d="M117.65 90.31c-.63 3.59-1.79 7.08-3.42 10.34a9.95 9.95 0 0 1-.18.34l3.39 1.95.4-.71-2.7-1.51c1.58-3.25 2.7-6.7 3.32-10.27a16.45 16.45 0 0 1-.81-.14z" id="LR"/><path d="M103.65 108.89l.56.67-.67.57-.56-.68.67-.56z" id="LS"/><path d="M102.96 108.37l.35.42-.42.35-.35-.42.42-.35z" id="LT"/><path d="M102.45 107.81l.27.33-.33.27-.27-.33.33-.27z" id="LU"/><path d="M102.56 109.82l.56.67-.67.57-.56-.67.67-.57z" id="LV"/><path d="M102.12 110.92l.35.42-.42.35-.35-.42.42-.35z" id="LW"/><path d="M101.37 108.72l.28.33-.33.27-.28-.33.33-.27z" id="LX"/><path d="M101.47 110.71l.57.68-.68.56-.56-.67.67-.57z" id="LY"/><path d="M100.79 110.2l.35.42-.42.35-.35-.42.42-.35z" id="LZ"/><path d="M100.27 109.65l.28.32-.33.28-.28-.33.33-.27z" id="La"/><path d="M110.87 99.26l.77.44-.44.77-.76-.44.43-.77z" id="Lb"/><path d="M110.06 98.99l.48.28-.28.47-.47-.27.27-.48z" id="Lc"/><path d="M109.39 98.65l.37.22-.22.37-.37-.22.22-.37z" id="Ld"/><path d="M110.16 100.5l.76.44-.44.76-.76-.44.44-.76z" id="Le"/><path d="M109.35 100.22l.47.27-.27.48-.48-.28.28-.47z" id="Lf"/><path d="M108.68 99.89l.37.21-.22.37-.37-.21.22-.37z" id="Lg"/><path d="M109.45 101.71l.76.44-.44.76-.76-.44.44-.76z" id="Lh"/><path d="M108.65 101.45l.47.27-.27.47-.48-.27.28-.47z" id="Li"/><path d="M108.92 100.15l.38.22-.22.37-.37-.22.21-.37z" id="Lj"/><path d="M114.4 87.77l.86.15-.15.86-.87-.15.16-.86z" id="Lk"/><path d="M113.52 87.75l.54.09-.1.54-.54-.1.1-.53z" id="Ll"/><path d="M112.8 87.72l.42.07-.07.42-.42-.07.07-.42z" id="Lm"/><path d="M114.15 89.17l.87.15-.15.87-.87-.16.15-.86z" id="Ln"/><path d="M113.27 89.16l.54.1-.09.53-.54-.09.09-.54z" id="Lo"/><path d="M112.56 89.12l.42.08-.07.42-.43-.08.08-.42z" id="Lp"/><path d="M113.91 90.56l.87.15-.15.87-.87-.15.15-.87z" id="Lq"/><path d="M113.03 90.57l.54.09-.09.54-.54-.1.09-.53z" id="Lr"/><path d="M112.29 90.49l.43.07-.08.43-.42-.08.07-.42z" id="Ls"/><path d="M90.36 49.65l.83.3-.31.83-.82-.3.3-.83z" id="Lt"/><path d="M90.12 50.82l.51.19-.18.51-.52-.19.19-.51z" id="Lu"/><path d="M89.89 51.66l.4.14-.15.4-.4-.14.15-.4z" id="Lv"/><path d="M91.69 50.14l.82.3-.3.82-.82-.3.3-.82z" id="Lw"/><path d="M91.45 51.31l.51.19-.19.51-.51-.19.19-.51z" id="Lx"/><path d="M91.21 52.13l.4.15-.14.4-.41-.14.15-.41z" id="Ly"/><path d="M93.03 50.63l.83.3-.3.82-.83-.3.3-.82z" id="Lz"/><path d="M92.78 51.78l.51.19-.19.51-.51-.18.19-.52z" id="MA"/><path d="M92.56 52.63l.4.14-.15.41-.4-.15.15-.4z" id="MB"/><path d="M79.03 48.16v.88h-.88v-.88h.88z" id="MC"/><path d="M78.86 49.33v.55h-.54v-.55h.54z" id="MD"/><path d="M78.8 50.18v.43h-.42v-.43h.42z" id="ME"/><path d="M80.45 48.16v.88h-.87v-.88h.87z" id="MF"/><path d="M80.29 49.33v.55h-.55v-.55h.55z" id="MG"/><path d="M80.23 50.18v.43h-.43v-.43h.43z" id="MH"/><path d="M81.88 48.16v.88H81v-.88h.88z" id="MI"/><path d="M81.71 49.33v.55h-.54v-.55h.54z" id="MJ"/><path d="M81.65 50.18v.43h-.42v-.43h.42z" id="MK"/><path d="M67 50.64l.3.82-.82.3-.3-.82.82-.3z" id="ML"/><path d="M67.24 51.84l.18.51-.51.19-.19-.52.52-.18z" id="MM"/><path d="M67.47 52.63l.15.4-.41.15-.14-.4.4-.15z" id="MN"/><path d="M68.32 50.18l.3.82-.82.3-.3-.82.82-.3z" id="MO"/><path d="M68.58 51.32l.19.52-.52.18-.18-.51.51-.19z" id="MP"/><path d="M68.8 52.15l.15.4-.4.14-.15-.4.4-.14z" id="MQ"/><path d="M69.67 49.67l.3.83-.83.3-.3-.82.83-.31z" id="MR"/><path d="M69.93 50.82l.18.51-.51.19-.19-.51.52-.19z" id="MS"/><path d="M69.82 52.15l.14.41-.4.14-.14-.4.4-.15z" id="MT"/><path d="M46.14 90.56l.15.87-.86.15-.15-.87.86-.15z" id="MU"/><path d="M47 90.57l.09.54-.54.09-.09-.53.54-.1z" id="MV"/><path d="M47.73 90.51l.07.42-.42.08-.07-.42.42-.08z" id="MW"/><path d="M45.9 89.15l.15.86-.86.16-.15-.87.86-.15z" id="MX"/><path d="M46.75 89.18l.1.54-.54.1-.09-.54.53-.1z" id="MY"/><path d="M47.5 89.08l.08.42-.43.08-.07-.42.42-.08z" id="MZ"/><path d="M45.65 87.75l.15.87-.86.15-.16-.87.87-.15z" id="Ma"/><path d="M46.5 87.77l.1.54-.54.1-.1-.54.54-.1z" id="Mb"/><path d="M47.22 87.71l.08.42-.42.07-.08-.42.42-.07z" id="Mc"/><path d="M50.56 101.75l.44.77-.76.44-.44-.77.76-.44z" id="Md"/><path d="M51.39 101.44l.27.48-.47.27-.27-.47.47-.28z" id="Me"/><path d="M52.05 101.14l.21.37-.37.21-.21-.37.37-.21z" id="Mf"/><path d="M49.87 100.49l.44.76-.76.44-.44-.76.76-.44z" id="Mg"/><path d="M50.68 100.21l.28.48-.48.27-.27-.47.47-.28z" id="Mh"/><path d="M51.33 99.93l.22.37-.37.21-.22-.37.37-.21z" id="Mi"/><path d="M49.15 99.26l.44.77-.76.43-.44-.76.76-.44z" id="Mj"/><path d="M49.98 98.99l.27.47-.47.27-.27-.47.47-.27z" id="Mk"/><path d="M50.62 98.69l.21.37-.37.21-.21-.37.37-.21z" id="Ml"/><path d="M58.57 110.73l.67.56-.56.67-.67-.56.56-.67z" id="Mm"/><path d="M59.69 108.69l.42.35-.35.42-.42-.35.35-.42z" id="Mn"/><path d="M59.75 109.65l.33.27-.27.33-.33-.28.27-.32z" id="Mo"/><path d="M57.48 109.79l.67.57-.56.67-.68-.56.57-.68z" id="Mp"/><path d="M58.15 109.24l.42.35-.36.42-.41-.35.35-.42z" id="Mq"/><path d="M58.66 108.75l.33.27-.28.33-.32-.27.27-.33z" id="Mr"/><path d="M56.39 108.89l.67.56-.56.68-.68-.57.57-.67z" id="Ms"/><path d="M57.06 108.32l.42.35-.35.42-.42-.35.35-.42z" id="Mt"/><path d="M57.57 107.84l.33.27-.28.33-.33-.28.28-.32z" id="Mu"/><path d="M78.6 129.53V117.9l-9.74-9.74v11.63h0l9.74 9.74z" id="Mv"/><path d="M91.21 108.16l-9.76 9.74v11.63l9.76-9.74h0v-11.63z" id="Mw"/><path d="M81.45 114.81l5.62-5.62v-1.76l-5.62 5.62h0v1.76z" id="Mx"/><path d="M81.45 111.69l5.62-5.61v-1.76l-5.62 5.61h0v1.76z" id="My"/><path d="M81.45 108.57l5.62-5.62v-1.75l-5.62 5.62h0v1.75z" id="Mz"/><path d="M81.45 105.45l5.62-5.61v-1.76l-5.62 5.61h0v1.76z" id="NA"/><path d="M81.45 102.34l5.62-5.62v-1.76l-5.62 5.62h0v1.76z" id="NB"/><path d="M78.6 114.81l-5.61-5.62v-1.76l5.61 5.62h0v1.76z" id="NC"/><path d="M78.6 111.69l-5.61-5.61v-1.76l5.61 5.61h0v1.76z" id="ND"/><path d="M78.6 108.57l-5.61-5.62v-1.75l5.61 5.62h0v1.75z" id="NE"/><path d="M78.6 105.45l-5.61-5.61v-1.76l5.61 5.61h0v1.76z" id="NF"/><path d="M78.6 102.34l-5.61-5.62v-1.76l5.61 5.62h0v1.76z" id="NG"/><path d="M80.13 100.65v28.82h-.2v-28.82h.2z" id="NH"/><path d="M120.53 61.82l-10.08 5.82-3.56 13.32 10.07-5.82h0l3.57-13.32z" id="NI"/><path d="M95.71 61.61l13.32 3.56 10.07-5.81-13.32-3.57h0l-10.07 5.82z" id="NJ"/><path d="M106.34 66.72l-7.66-2.06-1.52.88 7.66 2.06h0l1.52-.88z" id="NK"/><path d="M103.65 68.28l-7.67-2.06-1.53.89 7.68 2.04h0l1.52-.87z" id="NL"/><path d="M100.95 69.84l-7.68-2.05-1.52.87 7.68 2.06h0l1.52-.88z" id="NM"/><path d="M98.25 71.4l-7.67-2.06-1.52.88 7.66 2.06h0l1.53-.88z" id="NN"/><path d="M95.54 72.95l-7.66-2.05-1.52.88 7.66 2.05h0l1.52-.88z" id="NO"/><path d="M107.78 69.19l-2.07 7.67-1.52.88 2.06-7.67h0l1.53-.88z" id="NP"/><path d="M105.07 70.74l-2.05 7.68-1.52.88 2.05-7.68h0l1.52-.88z" id="NQ"/><path d="M102.38 72.31l-2.06 7.67-1.52.87 2.05-7.66h0l1.53-.88z" id="NR"/><path d="M99.68 73.87l-2.06 7.66-1.53.88 2.06-7.66h0l1.53-.88z" id="NS"/><path d="M96.97 75.43l-2.06 7.67-1.52.88 2.06-7.68h0l1.52-.87z" id="NT"/><path d="M119.7 60.53c.06.11.1.16.1.18L94.84 75.12l-.1-.18 24.96-14.41z" id="NU"/><path d="M40.93 59.37L51 65.2l13.32-3.58-10.07-5.81h0l-13.32 3.56z" id="NV"/><path d="M53.14 80.97l-3.56-13.3-10.08-5.83 3.58 13.32h0l10.06 5.81z" id="NW"/><path d="M52.26 69.21l2.06 7.66 1.52.88-2.06-7.66h0l-1.52-.88z" id="NX"/><path d="M54.96 70.77l2.05 7.67 1.52.87-2.05-7.66h0l-1.52-.88z" id="NY"/><path d="M57.66 72.32L59.71 80l1.52.88-2.05-7.68h0l-1.52-.88z" id="NZ"/><path d="M60.35 73.88l2.07 7.68 1.52.88-2.06-7.68h0l-1.53-.88z" id="Na"/><path d="M63.06 75.45l2.06 7.66 1.52.88-2.06-7.66h0l-1.52-.88z" id="Nb"/><path d="M53.69 66.74l7.66-2.06 1.52.88-7.66 2.06h0l-1.52-.88z" id="Nc"/><path d="M56.38 68.3l7.67-2.06 1.53.88-7.68 2.06h0l-1.52-.88z" id="Nd"/><path d="M59.08 69.85l7.68-2.05 1.52.88-7.68 2.05h0l-1.52-.88z" id="Ne"/><path d="M61.79 71.41l7.66-2.04 1.52.87-7.66 2.05h0l-1.52-.88z" id="Nf"/><path d="M64.49 72.98l7.66-2.06 1.53.88-7.67 2.06h0l-1.52-.88z" id="Ng"/><path d="M40.33 60.56l24.96 14.41-.1.17-24.96-14.41.1-.17z" id="Nh"/><path d="M80.04 88.77v8.85h-.06v-8.85h.06z" id="Ni"/><path d="M67.83 76.44l7.66 4.43c-.01.03-.02.05-.03.05l-7.66-4.43c.02-.03.03-.04.03-.05z" id="Nj"/><path d="M93.11 77.33l.03.05-7.7 4.43-.03-.05 7.7-4.43z" id="Nk"/><path d="M68.17 88.07l2.09 3.62h4.5a9.62 9.62 0 0 1-4.36-7.5l-2.23 3.88z" id="Nl"/><path d="M84.3 75l-2.15-3.73h-4.27L75.71 75a9.62 9.62 0 0 1 4.31-1.02A9.53 9.53 0 0 1 84.3 75z" id="Nm"/><path d="M89.61 84.19a9.48 9.48 0 0 1-4.36 7.5h4.51l2.09-3.62-2.24-3.88z" id="Nn"/><path d="M76.61 78.55c2.06-1.38 4.75-1.38 6.82 0a12.99 12.99 0 0 1 .38-.21c-2.27-1.65-5.33-1.65-7.6 0l.4.21z" id="No"/><path d="M77.77 89.29c-2.81-1.09-4.38-4.08-3.71-7.01a12.22 12.22 0 0 0-.37-.21 7.21 7.21 0 0 0-.19 1.54c0 2.73 1.71 5.17 4.27 6.11v-.43z" id="Np"/><path d="M85.97 82.27a6.05 6.05 0 0 1 .15 1.34c0 2.51-1.53 4.76-3.86 5.68v.43a6.53 6.53 0 0 0 4.27-6.11 7.21 7.21 0 0 0-.19-1.54l-.37.2z" id="Nq"/></defs><g fill="#1744aa"><use xlink:href="#A"/><use xlink:href="#B"/><use xlink:href="#C"/><use xlink:href="#D"/><use xlink:href="#E"/><use xlink:href="#F"/><use xlink:href="#G"/><use xlink:href="#H"/><use xlink:href="#I"/><use xlink:href="#J"/><use xlink:href="#K"/><use xlink:href="#L"/><use xlink:href="#M"/><use xlink:href="#N"/><use xlink:href="#O"/><use xlink:href="#P"/><use xlink:href="#Q"/><use xlink:href="#R"/><use xlink:href="#S"/><use xlink:href="#T"/><use xlink:href="#U"/><use xlink:href="#V"/><use xlink:href="#W"/><use xlink:href="#X"/><use xlink:href="#Y"/><use xlink:href="#Z"/><use xlink:href="#a"/><use xlink:href="#b"/><use xlink:href="#c"/><use xlink:href="#d"/><use xlink:href="#e"/><use xlink:href="#f"/><use xlink:href="#g"/><use xlink:href="#h"/><use xlink:href="#i"/><use xlink:href="#j"/><use xlink:href="#k"/><use xlink:href="#l"/><use xlink:href="#m"/><use xlink:href="#n"/><use xlink:href="#o"/><use xlink:href="#p"/><use xlink:href="#q"/><use xlink:href="#r"/><use xlink:href="#s"/><use xlink:href="#t"/><use xlink:href="#u"/><use xlink:href="#v"/><use xlink:href="#w"/><use xlink:href="#x"/><use xlink:href="#y"/><use xlink:href="#z"/><use xlink:href="#AA"/><use xlink:href="#AB"/><use xlink:href="#AC"/><use xlink:href="#AD"/><use xlink:href="#AE"/><use xlink:href="#AF"/><use xlink:href="#AG"/><use xlink:href="#AH"/><use xlink:href="#AI"/><use xlink:href="#AJ"/><use xlink:href="#AK"/><use xlink:href="#AL"/><use xlink:href="#AM"/><use xlink:href="#AN"/><use xlink:href="#AO"/><use xlink:href="#AP"/><use xlink:href="#AQ"/><use xlink:href="#AR"/><use xlink:href="#AS"/><use xlink:href="#AT"/><use xlink:href="#AU"/><use xlink:href="#AV"/><use xlink:href="#AW"/><use xlink:href="#AX"/><use xlink:href="#AY"/><use xlink:href="#AZ"/><use xlink:href="#Aa"/><use xlink:href="#Ab"/><use xlink:href="#Ac"/><use xlink:href="#Ad"/><use xlink:href="#Ae"/><use xlink:href="#Af"/><use xlink:href="#Ag"/><use xlink:href="#Ah"/><use xlink:href="#Ai"/><use xlink:href="#Aj"/><use xlink:href="#Ak"/><use xlink:href="#Al"/><use xlink:href="#Am"/><use xlink:href="#An"/><use xlink:href="#Ao"/><use xlink:href="#Ap"/><use xlink:href="#Aq"/><use xlink:href="#Ar"/><use xlink:href="#As"/><use xlink:href="#At"/><use xlink:href="#Au"/><use xlink:href="#Av"/><use xlink:href="#Aw"/><use xlink:href="#Ax"/><use xlink:href="#Ay"/><use xlink:href="#Az"/><use xlink:href="#BA"/><use xlink:href="#BB"/><use xlink:href="#BC"/><use xlink:href="#BD"/><use xlink:href="#BE"/><use xlink:href="#BF"/><use xlink:href="#BG"/><use xlink:href="#BH"/><use xlink:href="#BI"/><use xlink:href="#BJ"/><use xlink:href="#BK"/><use xlink:href="#BL"/><use xlink:href="#BM"/><use xlink:href="#BN"/><use xlink:href="#BO"/><use xlink:href="#BP"/><use xlink:href="#BQ"/><use xlink:href="#BR"/><use xlink:href="#BS"/><use xlink:href="#BT"/><use xlink:href="#BU"/><use xlink:href="#BV"/><use xlink:href="#BW"/><use xlink:href="#BX"/><use xlink:href="#BY"/><use xlink:href="#BZ"/><use xlink:href="#Ba"/><use xlink:href="#Bb"/><use xlink:href="#Bc"/><use xlink:href="#Bd"/><use xlink:href="#Be"/><use xlink:href="#Bf"/><use xlink:href="#Bg"/><use xlink:href="#Bh"/><use xlink:href="#Bi"/><use xlink:href="#Bj"/><use xlink:href="#Bk"/><use xlink:href="#Bl"/><use xlink:href="#Bm"/><use xlink:href="#Bn"/><use xlink:href="#Bo"/><use xlink:href="#Bp"/><use xlink:href="#Bq"/><use xlink:href="#Br"/><use xlink:href="#Bs"/><use xlink:href="#Bt"/><use xlink:href="#Bu"/><use xlink:href="#Bv"/><use xlink:href="#Bw"/><use xlink:href="#Bx"/><use xlink:href="#By"/><use xlink:href="#Bz"/><use xlink:href="#CA"/><use xlink:href="#CB"/><use xlink:href="#CC"/><use xlink:href="#CD"/><use xlink:href="#CE"/><use xlink:href="#CF"/><use xlink:href="#CG"/><use xlink:href="#CH"/><use xlink:href="#CI"/><use xlink:href="#CJ"/><use xlink:href="#CK"/><use xlink:href="#CL"/><use xlink:href="#CM"/><use xlink:href="#CN"/><use xlink:href="#CO"/><use xlink:href="#CP"/><use xlink:href="#CQ"/><use xlink:href="#CR"/><use xlink:href="#CS"/><use xlink:href="#CT"/><use xlink:href="#CU"/><use xlink:href="#CV"/><use xlink:href="#CW"/><use xlink:href="#CX"/><use xlink:href="#CY"/><use xlink:href="#CZ"/><use xlink:href="#Ca"/><use xlink:href="#Cb"/><use xlink:href="#Cc"/><use xlink:href="#Cd"/><use xlink:href="#Ce"/><use xlink:href="#Cf"/><use xlink:href="#Cg"/><use xlink:href="#Ch"/><use xlink:href="#Ci"/><use xlink:href="#Cj"/><use xlink:href="#Ck"/><use xlink:href="#Cl"/><use xlink:href="#Cm"/><use xlink:href="#Cn"/><use xlink:href="#Co"/><use xlink:href="#Cp"/><use xlink:href="#Cq"/><use xlink:href="#Cr"/><use xlink:href="#Cs"/><use xlink:href="#Ct"/><use xlink:href="#Cu"/><use xlink:href="#Cv"/><use xlink:href="#Cw"/><use xlink:href="#Cx"/><use xlink:href="#Cy"/><use xlink:href="#Cz"/><use xlink:href="#DA"/><use xlink:href="#DB"/><use xlink:href="#DC"/><use xlink:href="#DD"/><use xlink:href="#DE"/><use xlink:href="#DF"/><use xlink:href="#DG"/><use xlink:href="#DH"/><use xlink:href="#DI"/><use xlink:href="#DJ"/><use xlink:href="#DK"/><use xlink:href="#DL"/><use xlink:href="#DM"/><use xlink:href="#DN"/><use xlink:href="#DO"/><use xlink:href="#DP"/><use xlink:href="#DQ"/><use xlink:href="#DR"/><use xlink:href="#DS"/><use xlink:href="#DT"/><use xlink:href="#DU"/><use xlink:href="#DV"/><use xlink:href="#DW"/><use xlink:href="#DX"/><use xlink:href="#DY"/><use xlink:href="#DZ"/><use xlink:href="#Da"/><use xlink:href="#Db"/><use xlink:href="#Dc"/><use xlink:href="#Dd"/><use xlink:href="#De"/><use xlink:href="#Df"/><use xlink:href="#Dg"/><use xlink:href="#Dh"/><use xlink:href="#Di"/><use xlink:href="#Dj"/><use xlink:href="#Dk"/><use xlink:href="#Dl"/><use xlink:href="#Dm"/><use xlink:href="#Dn"/><use xlink:href="#Do"/><use xlink:href="#Dp"/><use xlink:href="#Dq"/><use xlink:href="#Dr"/><use xlink:href="#Ds"/><use xlink:href="#Dt"/><use xlink:href="#Du"/><use xlink:href="#Dv"/><use xlink:href="#Dw"/><use xlink:href="#Dx"/><use xlink:href="#Dy"/><use xlink:href="#Dz"/><use xlink:href="#EA"/><use xlink:href="#EB"/><use xlink:href="#EC"/><use xlink:href="#ED"/><use xlink:href="#EE"/><use xlink:href="#EF"/><use xlink:href="#EG"/><use xlink:href="#EH"/><use xlink:href="#EI"/><use xlink:href="#EJ"/><use xlink:href="#EK"/><use xlink:href="#EL"/><use xlink:href="#EM"/><use xlink:href="#EN"/><use xlink:href="#EO"/><use xlink:href="#EP"/><use xlink:href="#EQ"/><use xlink:href="#ER"/><use xlink:href="#ES"/><use xlink:href="#ET"/><use xlink:href="#EU"/><use xlink:href="#EV"/><use xlink:href="#EW"/><use xlink:href="#EX"/><use xlink:href="#EY"/><use xlink:href="#EZ"/><use xlink:href="#Ea"/><use xlink:href="#Eb"/><use xlink:href="#Ec"/><use xlink:href="#Ed"/><use xlink:href="#Ee"/><use xlink:href="#Ef"/><use xlink:href="#Eg"/><use xlink:href="#Eh"/><use xlink:href="#Ei"/><use xlink:href="#Ej"/><use xlink:href="#Ek"/><use xlink:href="#El"/><use xlink:href="#Em"/><use xlink:href="#En"/><use xlink:href="#Eo"/><use xlink:href="#Ep"/><use xlink:href="#Eq"/><use xlink:href="#Er"/><use xlink:href="#Es"/><use xlink:href="#Et"/><use xlink:href="#Eu"/><use xlink:href="#Ev"/><use xlink:href="#Ew"/><use xlink:href="#Ex"/><use xlink:href="#Ey"/><use xlink:href="#Ez"/><use xlink:href="#FA"/><use xlink:href="#FB"/><use xlink:href="#FC"/><use xlink:href="#FD"/><use xlink:href="#FE"/><use xlink:href="#FF"/><use xlink:href="#FG"/><use xlink:href="#FH"/><use xlink:href="#FI"/><use xlink:href="#FJ"/><use xlink:href="#FK"/><use xlink:href="#FL"/><use xlink:href="#FM"/><use xlink:href="#FN"/><use xlink:href="#FO"/><use xlink:href="#FP"/><use xlink:href="#FQ"/><use xlink:href="#FR"/><use xlink:href="#FS"/><use xlink:href="#FT"/><use xlink:href="#FU"/><use xlink:href="#FV"/><use xlink:href="#FW"/><use xlink:href="#FX"/><use xlink:href="#FY"/><use xlink:href="#FZ"/><use xlink:href="#Fa"/><use xlink:href="#Fb"/><use xlink:href="#Fc"/><use xlink:href="#Fd"/><use xlink:href="#Fe"/><use xlink:href="#Ff"/><use xlink:href="#Fg"/><use xlink:href="#Fh"/><use xlink:href="#Fi"/><use xlink:href="#Fj"/><use xlink:href="#Fk"/><use xlink:href="#Fl"/><use xlink:href="#Fm"/><use xlink:href="#Fn"/><use xlink:href="#Fo"/><use xlink:href="#Fp"/><use xlink:href="#Fq"/><use xlink:href="#Fr"/><use xlink:href="#Fs"/><use xlink:href="#Ft"/><use xlink:href="#Fu"/><use xlink:href="#Fv"/><use xlink:href="#Fw"/><use xlink:href="#Fx"/><use xlink:href="#Fy"/><use xlink:href="#Fz"/><use xlink:href="#GA"/><use xlink:href="#GB"/><use xlink:href="#GC"/><use xlink:href="#GD"/><use xlink:href="#GE"/><use xlink:href="#GF"/><use xlink:href="#GG"/><use xlink:href="#GH"/><use xlink:href="#GI"/><use xlink:href="#GJ"/><use xlink:href="#GK"/><use xlink:href="#GL"/><use xlink:href="#GM"/><use xlink:href="#GN"/><use xlink:href="#GO"/><use xlink:href="#GP"/><use xlink:href="#GQ"/><use xlink:href="#GR"/><use xlink:href="#GS"/><use xlink:href="#GT"/><use xlink:href="#GU"/><use xlink:href="#GV"/><use xlink:href="#GW"/><use xlink:href="#GX"/><use xlink:href="#GY"/><use xlink:href="#GZ"/><use xlink:href="#Ga"/><use xlink:href="#Gb"/><use xlink:href="#Gc"/><use xlink:href="#Gd"/><use xlink:href="#Ge"/><use xlink:href="#Gf"/><use xlink:href="#Gg"/><use xlink:href="#Gh"/><use xlink:href="#Gi"/><use xlink:href="#Gj"/><use xlink:href="#Gk"/><use xlink:href="#Gl"/><use xlink:href="#Gm"/><use xlink:href="#Gn"/><use xlink:href="#Go"/><use xlink:href="#Gp"/><use xlink:href="#Gq"/><use xlink:href="#Gr"/><use xlink:href="#Gs"/><use xlink:href="#Gt"/><use xlink:href="#Gu"/><use xlink:href="#Gv"/><use xlink:href="#Gw"/><use xlink:href="#Gx"/><use xlink:href="#Gy"/><use xlink:href="#Gz"/><use xlink:href="#HA"/><use xlink:href="#HB"/><use xlink:href="#HC"/><use xlink:href="#HD"/><use xlink:href="#HE"/><use xlink:href="#HF"/><use xlink:href="#HG"/><use xlink:href="#HH"/><use xlink:href="#HI"/><use xlink:href="#HJ"/><use xlink:href="#HK"/><use xlink:href="#HL"/><use xlink:href="#HM"/><use xlink:href="#HN"/><use xlink:href="#HO"/><use xlink:href="#HP"/><use xlink:href="#HQ"/><use xlink:href="#HR"/><use xlink:href="#HS"/><use xlink:href="#HT"/><use xlink:href="#HU"/><use xlink:href="#HV"/><use xlink:href="#HW"/><use xlink:href="#HX"/><use xlink:href="#HY"/><use xlink:href="#HZ"/><use xlink:href="#Ha"/><use xlink:href="#Hb"/><use xlink:href="#Hc"/><use xlink:href="#Hd"/><use xlink:href="#He"/><use xlink:href="#Hf"/><use xlink:href="#Hg"/><use xlink:href="#Hh"/><use xlink:href="#Hi"/><use xlink:href="#Hj"/><use xlink:href="#Hk"/><use xlink:href="#Hl"/><use xlink:href="#Hm"/><use xlink:href="#Hn"/><use xlink:href="#Ho"/><use xlink:href="#Hp"/><use xlink:href="#Hq"/><use xlink:href="#Hr"/><use xlink:href="#Hs"/><use xlink:href="#Ht"/><use xlink:href="#Hu"/><use xlink:href="#Hv"/><use xlink:href="#Hw"/><use xlink:href="#Hx"/><use xlink:href="#Hy"/><use xlink:href="#Hz"/><use xlink:href="#IA"/><use xlink:href="#IB"/><use xlink:href="#IC"/><use xlink:href="#ID"/><use xlink:href="#IE"/><use xlink:href="#IF"/><use xlink:href="#IG"/><use xlink:href="#IH"/><use xlink:href="#II"/><use xlink:href="#IJ"/><use xlink:href="#IK"/><use xlink:href="#IL"/><use xlink:href="#IM"/><use xlink:href="#IN"/><use xlink:href="#IO"/><use xlink:href="#IP"/><use xlink:href="#IQ"/><use xlink:href="#IR"/><use xlink:href="#IS"/><use xlink:href="#IT"/><use xlink:href="#IU"/><use xlink:href="#IV"/><use xlink:href="#IW"/><use xlink:href="#IX"/><use xlink:href="#IY"/><use xlink:href="#IZ"/><use xlink:href="#Ia"/><use xlink:href="#Ib"/><use xlink:href="#Ic"/><use xlink:href="#Id"/><use xlink:href="#Ie"/><use xlink:href="#If"/><use xlink:href="#Ig"/><use xlink:href="#Ih"/><use xlink:href="#Ii"/><use xlink:href="#Ij"/><use xlink:href="#Ik"/><use xlink:href="#Il"/><use xlink:href="#Im"/><use xlink:href="#In"/><use xlink:href="#Io"/><use xlink:href="#Ip"/><use xlink:href="#Iq"/><use xlink:href="#Ir"/><use xlink:href="#Is"/><use xlink:href="#It"/><use xlink:href="#Iu"/><use xlink:href="#Iv"/><use xlink:href="#Iw"/><use xlink:href="#Ix"/><use xlink:href="#Iy"/><use xlink:href="#Iz"/><use xlink:href="#JA"/><use xlink:href="#JB"/><use xlink:href="#JC"/><use xlink:href="#JD"/><use xlink:href="#JE"/><use xlink:href="#JF"/><use xlink:href="#JG"/><use xlink:href="#JH"/><use xlink:href="#JI"/><use xlink:href="#JJ"/><use xlink:href="#JK"/><use xlink:href="#JL"/><use xlink:href="#JM"/><use xlink:href="#JN"/><use xlink:href="#JO"/><use xlink:href="#JP"/><use xlink:href="#JQ"/><use xlink:href="#JR"/><use xlink:href="#JS"/><use xlink:href="#JT"/><use xlink:href="#JU"/><use xlink:href="#JV"/><use xlink:href="#JW"/><use xlink:href="#JX"/><use xlink:href="#JY"/><use xlink:href="#JZ"/><use xlink:href="#Ja"/><use xlink:href="#Jb"/><use xlink:href="#Jc"/><use xlink:href="#Jd"/><use xlink:href="#Je"/><use xlink:href="#Jf"/><use xlink:href="#Jg"/><use xlink:href="#Jh"/><use xlink:href="#Ji"/><use xlink:href="#Jj"/><use xlink:href="#Jk"/><use xlink:href="#Jl"/><use xlink:href="#Jm"/><use xlink:href="#Jn"/><use xlink:href="#Jo"/><use xlink:href="#Jp"/><use xlink:href="#Jq"/><use xlink:href="#Jr"/><use xlink:href="#Js"/><use xlink:href="#Jt"/><use xlink:href="#Ju"/><use xlink:href="#Jv"/><use xlink:href="#Jw"/><use xlink:href="#Jx"/><use xlink:href="#Jy"/><use xlink:href="#Jz"/><use xlink:href="#KA"/><use xlink:href="#KB"/><use xlink:href="#KC"/><use xlink:href="#KD"/><use xlink:href="#KE"/><use xlink:href="#KF"/><use xlink:href="#KG"/><use xlink:href="#KH"/><use xlink:href="#KI"/><use xlink:href="#KJ"/><use xlink:href="#KK"/><use xlink:href="#KL"/><use xlink:href="#KM"/><use xlink:href="#KN"/><use xlink:href="#KO"/><use xlink:href="#KP"/><use xlink:href="#KQ"/><use xlink:href="#KR"/><use xlink:href="#KS"/><use xlink:href="#KT"/><use xlink:href="#KU"/><use xlink:href="#KV"/><use xlink:href="#KW"/><use xlink:href="#KX"/><use xlink:href="#KY"/><use xlink:href="#KZ"/><use xlink:href="#Ka"/><use xlink:href="#Kb"/><use xlink:href="#Kc"/><use xlink:href="#Kd"/><use xlink:href="#Ke"/><use xlink:href="#Kf"/><use xlink:href="#Kg"/><use xlink:href="#Kh"/><use xlink:href="#Ki"/><use xlink:href="#Kj"/><use xlink:href="#Kk"/><use xlink:href="#Kl"/><use xlink:href="#Km"/><use xlink:href="#Kn"/><use xlink:href="#Ko"/><use xlink:href="#Kp"/><use xlink:href="#Kq"/><use xlink:href="#Kr"/><use xlink:href="#Ks"/><use xlink:href="#Kt"/><use xlink:href="#Ku"/><use xlink:href="#Kv"/><use xlink:href="#Kw"/><use xlink:href="#Kx"/><use xlink:href="#Ky"/><use xlink:href="#Kz"/><use xlink:href="#LA"/><use xlink:href="#LB"/><use xlink:href="#LC"/><use xlink:href="#LD"/><use xlink:href="#LE"/><use xlink:href="#LF"/><use xlink:href="#LG"/><use xlink:href="#LH"/><use xlink:href="#LI"/><use xlink:href="#LJ"/><use xlink:href="#LK"/><use xlink:href="#LL"/><use xlink:href="#LM"/><use xlink:href="#LN"/><use xlink:href="#LO"/><use xlink:href="#LP"/><use xlink:href="#LQ"/><use xlink:href="#LR"/><use xlink:href="#LS"/><use xlink:href="#LT"/><use xlink:href="#LU"/><use xlink:href="#LV"/><use xlink:href="#LW"/><use xlink:href="#LX"/><use xlink:href="#LY"/><use xlink:href="#LZ"/><use xlink:href="#La"/><use xlink:href="#Lb"/><use xlink:href="#Lc"/><use xlink:href="#Ld"/><use xlink:href="#Le"/><use xlink:href="#Lf"/><use xlink:href="#Lg"/><use xlink:href="#Lh"/><use xlink:href="#Li"/><use xlink:href="#Lj"/><use xlink:href="#Lk"/><use xlink:href="#Ll"/><use xlink:href="#Lm"/><use xlink:href="#Ln"/><use xlink:href="#Lo"/><use xlink:href="#Lp"/><use xlink:href="#Lq"/><use xlink:href="#Lr"/><use xlink:href="#Ls"/><use xlink:href="#Lt"/><use xlink:href="#Lu"/><use xlink:href="#Lv"/><use xlink:href="#Lw"/><use xlink:href="#Lx"/><use xlink:href="#Ly"/><use xlink:href="#Lz"/><use xlink:href="#MA"/><use xlink:href="#MB"/><use xlink:href="#MC"/><use xlink:href="#MD"/><use xlink:href="#ME"/><use xlink:href="#MF"/><use xlink:href="#MG"/><use xlink:href="#MH"/><use xlink:href="#MI"/><use xlink:href="#MJ"/><use xlink:href="#MK"/><use xlink:href="#ML"/><use xlink:href="#MM"/><use xlink:href="#MN"/><use xlink:href="#MO"/><use xlink:href="#MP"/><use xlink:href="#MQ"/><use xlink:href="#MR"/><use xlink:href="#MS"/><use xlink:href="#MT"/><use xlink:href="#MU"/><use xlink:href="#MV"/><use xlink:href="#MW"/><use xlink:href="#MX"/><use xlink:href="#MY"/><use xlink:href="#MZ"/><use xlink:href="#Ma"/><use xlink:href="#Mb"/><use xlink:href="#Mc"/><use xlink:href="#Md"/><use xlink:href="#Me"/><use xlink:href="#Mf"/><use xlink:href="#Mg"/><use xlink:href="#Mh"/><use xlink:href="#Mi"/><use xlink:href="#Mj"/><use xlink:href="#Mk"/><use xlink:href="#Ml"/><use xlink:href="#Mm"/><use xlink:href="#Mn"/><use xlink:href="#Mo"/><use xlink:href="#Mp"/><use xlink:href="#Mq"/><use xlink:href="#Mr"/><use xlink:href="#Ms"/><use xlink:href="#Mt"/><use xlink:href="#Mu"/><use xlink:href="#Mv"/><use xlink:href="#Mw"/><use xlink:href="#Mx"/><use xlink:href="#My"/><use xlink:href="#Mz"/><use xlink:href="#NA"/><use xlink:href="#NB"/><use xlink:href="#NC"/><use xlink:href="#ND"/><use xlink:href="#NE"/><use xlink:href="#NF"/><use xlink:href="#NG"/><use xlink:href="#NH"/><use xlink:href="#NI"/><use xlink:href="#NJ"/><use xlink:href="#NK"/><use xlink:href="#NL"/><use xlink:href="#NM"/><use xlink:href="#NN"/><use xlink:href="#NO"/><use xlink:href="#NP"/><use xlink:href="#NQ"/><use xlink:href="#NR"/><use xlink:href="#NS"/><use xlink:href="#NT"/><use xlink:href="#NU"/><use xlink:href="#NV"/><use xlink:href="#NW"/><use xlink:href="#NX"/><use xlink:href="#NY"/><use xlink:href="#NZ"/><use xlink:href="#Na"/><use xlink:href="#Nb"/><use xlink:href="#Nc"/><use xlink:href="#Nd"/><use xlink:href="#Ne"/><use xlink:href="#Nf"/><use xlink:href="#Ng"/><use xlink:href="#Nh"/><use xlink:href="#Ni"/><use xlink:href="#Nj"/><use xlink:href="#Nk"/><use xlink:href="#Nl"/><use xlink:href="#Nm"/><use xlink:href="#Nn"/><use xlink:href="#No"/><use xlink:href="#Np"/><use xlink:href="#Nq"/></g></svg>