<?xml version="1.0" encoding="iso-8859-1"?>
<!-- Generator: Adobe Illustrator 19.0.0, SVG Export Plug-In . SVG Version: 6.00 Build 0)  -->
<svg version="1.1" id="Layer_1" xmlns="http://www.w3.org/2000/svg" xmlns:xlink="http://www.w3.org/1999/xlink" x="0px" y="0px"
	 viewBox="0 0 505.6 505.6" style="enable-background:new 0 0 505.6 505.6;" xml:space="preserve">
<polygon style="fill:#4DC430;" points="268.8,132.4 236.8,132.4 244.8,60.4 260.8,60.4 "/>
<polygon style="fill:#42AF23;" points="268.8,132.4 254.4,132.4 244.8,60.4 260.8,60.4 "/>
<path style="fill:#4DC430;" d="M344.8,156.4c-16-24-51.2-40.8-92-40.8s-75.2,16.8-92,40.8H344.8z"/>
<path style="fill:#42AF23;" d="M252.8,156.4h92c-16-24-50.4-40-91.2-40c-0.8,0-0.8,1.6-0.8,1.6V156.4z"/>
<path style="fill:#4DC430;" d="M160.8,404.4c16,24,51.2,40.8,92,40.8s75.2-16.8,92-40.8H160.8z"/>
<path style="fill:#42AF23;" d="M252.8,404.4h-92c16,24,50.4,40.8,91.2,40.8c0.8,0,0.8,0,0.8,0V404.4z"/>
<path style="fill:#EA8B18;" d="M0,277.2c0-136,113.6-120.8,252.8-120.8s252.8-15.2,252.8,120.8S392.8,435.6,252.8,435.6
	C113.6,435.6,0,413.2,0,277.2z"/>
<path style="fill:#D3750D;" d="M252.8,435.6C113.6,435.6,0,413.2,0,277.2c0-136,113.6-120.8,252.8-120.8"/>
<path style="fill:#F9A12C;" d="M53.6,277.2c0-136,88.8-120.8,199.2-120.8S452,141.2,452,277.2s-89.6,158.4-199.2,158.4
	S53.6,413.2,53.6,277.2z"/>
<g>
	<path style="fill:#EA8B18;" d="M252.8,435.6c-110.4,0-199.2-22.4-199.2-158.4c0-136,88.8-120.8,199.2-120.8"/>
	<path style="fill:#EA8B18;" d="M99.2,277.2c0-136,68.8-120.8,153.6-120.8s153.6-15.2,153.6,120.8s-68.8,158.4-153.6,158.4
		S99.2,413.2,99.2,277.2z"/>
</g>
<path style="fill:#D3750D;" d="M252.8,435.6c-84.8,0-153.6-22.4-153.6-158.4S168,156.4,252.8,156.4"/>
<path style="fill:#F9A12C;" d="M164,277.2c0-136,40-120.8,88.8-120.8s88.8-15.2,88.8,120.8s-40,158.4-88.8,158.4
	C204,435.6,164,413.2,164,277.2z"/>
<path style="fill:#EA8B18;" d="M252.8,435.6c-48.8,0-88.8-22.4-88.8-158.4s40-120.8,88.8-120.8"/>
<g>
</g>
<g>
</g>
<g>
</g>
<g>
</g>
<g>
</g>
<g>
</g>
<g>
</g>
<g>
</g>
<g>
</g>
<g>
</g>
<g>
</g>
<g>
</g>
<g>
</g>
<g>
</g>
<g>
</g>
</svg>
