<?xml version="1.0" encoding="iso-8859-1"?>
<!-- Generator: Adobe Illustrator 19.0.0, SVG Export Plug-In . SVG Version: 6.00 Build 0)  -->
<svg version="1.1" id="Layer_1" xmlns="http://www.w3.org/2000/svg" xmlns:xlink="http://www.w3.org/1999/xlink" x="0px" y="0px"
	 viewBox="0 0 512 512" style="enable-background:new 0 0 512 512;" xml:space="preserve">
<path style="fill:#A6673A;" d="M139.13,512H61.217c-27.619,0-50.087-22.468-50.087-50.087c0-71.168,41.761-136.533,106.38-166.521
	c6.804-3.147,14.859-1.391,19.718,4.289c4.87,5.684,5.358,13.919,1.195,20.136c-7.109,10.636-10.87,23.554-10.87,37.358
	c0,14.152,4.315,27.396,13.566,41.673c2.881,4.451,3.478,10,1.619,14.961c-1.87,4.956-5.978,8.74-11.076,10.18
	c-4.685,1.331-8.913,3.788-12.228,7.103c-5.218,5.283-8.131,12.309-8.131,19.69c0,15.342,12.478,27.826,27.826,27.826
	c9.217,0,16.696,7.473,16.696,16.696S148.348,512,139.13,512z"/>
<path style="fill:#99522E;" d="M450.783,512H372.87c-9.217,0-16.696-7.473-16.696-16.696s7.479-16.696,16.696-16.696
	c7.381,0,14.402-2.918,19.782-8.218c5.131-5.201,8.044-12.228,8.044-19.608c0-12.44-8.337-23.445-20.283-26.766
	c-5.12-1.429-9.251-5.201-11.13-10.174c-1.891-4.968-1.293-10.533,1.598-14.995c9.251-14.277,13.566-27.522,13.566-41.673
	c0-13.804-3.761-26.723-10.87-37.358c-4.163-6.217-3.674-14.451,1.195-20.136c4.858-5.68,12.914-7.435,19.718-4.289
	c64.619,29.99,106.38,95.354,106.38,166.522C500.87,489.532,478.402,512,450.783,512z"/>
<path style="fill:#A6673A;" d="M115.87,162.734c-1.946,0-3.913-0.343-5.837-1.06c-32.522-12.125-54.381-43.549-54.381-78.196
	C55.652,37.446,93.098,0,139.13,0c34.641,0,66.065,21.853,78.196,54.38c3.196,8.559-1.087,18.098-9.598,21.403
	c-34.935,13.549-62.739,41.358-76.294,76.288C128.869,158.679,122.565,162.734,115.87,162.734z"/>
<path style="fill:#FFEFD9;" d="M132.636,133.114c-25.431-3.401-43.592-25.186-43.592-49.636c0-27.619,22.468-50.087,50.087-50.087
	c22.569,0,42.877,15.497,48.549,37.881L132.636,133.114z"/>
<path style="fill:#99522E;" d="M380.565,152.071c-13.555-34.93-41.358-62.739-76.294-76.288c-8.51-3.305-12.793-12.842-9.598-21.403
	C306.805,21.853,338.228,0,372.87,0c46.032,0,83.478,37.446,83.478,83.478c0,34.647-21.859,66.07-54.38,78.196
	c-1.924,0.718-3.891,1.06-5.837,1.06C389.435,162.734,383.131,158.679,380.565,152.071z"/>
<path style="fill:#FFD9B3;" d="M379.364,133.114c25.432-3.401,43.592-25.186,43.592-49.636c0-27.619-22.468-50.087-50.087-50.087
	c-22.569,0-42.877,15.497-48.549,37.881L379.364,133.114z"/>
<path style="fill:#A6673A;" d="M362.402,307.342c-13.695-11.402-32.243-14.111-45.783-10.5
	c-14.825,3.893-26.526-12.467-18.326-25.185c5.098-7.903,7.794-17.169,7.794-26.788c0-27.619-22.468-50.087-50.087-50.087
	s-50.087,22.468-50.087,50.087c0,9.62,2.696,18.886,7.794,26.788c8.22,12.748-3.538,29.086-18.326,25.185
	c-13.467-3.591-31.982-0.99-45.783,10.5c-7.175,5.964-17.843,4.92-23.707-2.386c-23.76-29.63-36.847-66.777-36.847-104.608
	c0-70.787,44.138-131.458,106.597-155.696c38.195-14.935,82.489-14.952,120.75,0.017c62.798,24.362,106.566,85.306,106.566,155.679
	c0,37.831-13.087,74.978-36.847,104.608C380.221,312.292,369.544,313.285,362.402,307.342z"/>
<path style="fill:#99522E;" d="M316.391,44.669C297.264,37.186,276.628,33.448,256,33.448v161.335
	c27.619,0,50.087,22.468,50.087,50.087c0,9.62-2.696,18.886-7.794,26.788c-8.201,12.718,3.502,29.078,18.326,25.185
	c13.541-3.611,32.087-0.903,45.783,10.5c7.141,5.943,17.82,4.95,23.707-2.386c23.76-29.63,36.847-66.777,36.847-104.608
	C422.957,129.975,379.188,69.031,316.391,44.669z"/>
<path style="fill:#FFEFD9;" d="M256.011,358.033c-0.022,0-0.043,0-0.066,0c-7.479-0.027-14.032-4.989-16.032-12.196
	c-0.098-0.348-12.043-40.891-44.282-48.929c-4.119-1.027-7.684-3.587-9.99-7.152c-8.587-13.31-13.119-28.831-13.119-44.886
	c0-46.032,37.446-83.478,83.478-83.478s83.478,37.446,83.478,83.478c0,16.055-4.532,31.576-13.119,44.886
	c-2.304,3.565-5.869,6.125-9.99,7.152c-32.239,8.038-44.184,48.581-44.305,48.99C270.022,353.065,263.456,358.033,256.011,358.033z
	 M312.326,280.706h0.109H312.326z"/>
<path style="fill:#FFD9B3;" d="M256.011,358.033c7.445,0,14.011-4.968,16.055-12.135c0.119-0.407,12.065-40.951,44.305-48.99
	c4.119-1.027,7.684-3.587,9.99-7.152c8.586-13.31,13.118-28.831,13.118-44.886c0-46.032-37.446-83.478-83.478-83.478v196.641
	L256.011,358.033L256.011,358.033z"/>
<circle style="fill:#736056;" cx="256" cy="211.478" r="16.696"/>
<path style="fill:#665247;" d="M272.696,211.478c0-9.22-7.475-16.696-16.696-16.696v33.391
	C265.22,228.174,272.696,220.699,272.696,211.478z"/>
<circle style="fill:#736056;" cx="205.913" cy="133.565" r="16.696"/>
<circle style="fill:#665247;" cx="306.087" cy="133.565" r="16.696"/>
<path style="fill:#E6563A;" d="M350.609,512H161.391c-9.217,0-16.696-7.473-16.696-16.696s7.479-16.696,16.696-16.696
	c15.012,0,27.826-12.1,27.826-27.826c0-33.722-46.26-30.116-57.392-26.837c-7.119,2.087-14.718-0.733-18.728-6.934
	c-34.525-53.29-16.86-109.774,15.391-135.538c33.583-27.985,92.57-30.275,127.521,21.777c35.18-52.213,93.961-49.714,127.761-21.571
	c29.783,23.821,51.083,79.839,15.131,135.332c-4.011,6.201-11.619,9.017-18.728,6.934c-11.132-3.279-57.391-7.067-57.391,26.837
	c0,15.342,12.478,27.826,27.826,27.826c9.217,0,16.696,7.473,16.696,16.696S359.826,512,350.609,512z"/>
<path style="fill:#D9472B;" d="M383.772,281.679c-33.8-28.143-92.582-30.643-127.761,21.571L256,303.235V512h94.609
	c9.217,0,16.696-7.473,16.696-16.696s-7.479-16.696-16.696-16.696c-15.348,0-27.826-12.484-27.826-27.826
	c0-33.903,46.259-30.116,57.392-26.837c7.109,2.081,14.718-0.733,18.728-6.934C434.855,361.518,413.555,305.5,383.772,281.679z"/>
<path style="fill:#FFEFD9;" d="M161.391,512H139.13c-33.75,0-61.217-27.462-61.217-61.217c0-34.031,27.678-61.217,61.217-61.217
	h22.261c33.75,0,61.217,27.462,61.217,61.217C222.609,484.723,195.005,512,161.391,512z"/>
<path style="fill:#FFD9B3;" d="M372.87,512h-22.261c-33.75,0-61.217-27.462-61.217-61.217c0-33.94,27.603-61.217,61.217-61.217
	h22.261c34.259,0,61.217,27.92,61.217,61.217C434.087,484.723,406.483,512,372.87,512z"/>
<g>
</g>
<g>
</g>
<g>
</g>
<g>
</g>
<g>
</g>
<g>
</g>
<g>
</g>
<g>
</g>
<g>
</g>
<g>
</g>
<g>
</g>
<g>
</g>
<g>
</g>
<g>
</g>
<g>
</g>
</svg>
