<?xml version="1.0" encoding="iso-8859-1"?>
<!-- Generator: Adobe Illustrator 19.0.0, SVG Export Plug-In . SVG Version: 6.00 Build 0)  -->
<svg version="1.1" id="Layer_1" xmlns="http://www.w3.org/2000/svg" xmlns:xlink="http://www.w3.org/1999/xlink" x="0px" y="0px"
	 viewBox="0 0 512 512" style="enable-background:new 0 0 512 512;" xml:space="preserve">
<g>
	<polygon style="fill:#E2D8BD;" points="81.743,360.768 109.17,512 402.767,512 430.265,360.764 	"/>
	<path style="fill:#E2D8BD;" d="M382.593,36.242l-33.758,110.044l146.286,112.527v-19.692
		C495.121,153.552,450.165,78.495,382.593,36.242z"/>
	<path style="fill:#E2D8BD;" d="M16.879,239.121v19.692l146.286-112.527L129.407,36.242
		C61.835,78.495,16.879,153.552,16.879,239.121z"/>
</g>
<path style="fill:#F1ECDE;" d="M382.593,146.286V36.242C345.879,13.284,302.494,0,256,0s-89.879,13.284-126.593,36.242v110.044
	c-62.148,0-112.527,50.38-112.527,112.527c0,45.109,26.546,84.011,64.865,101.956c14.473,6.777,30.623,10.572,47.662,10.572
	l11.223,61.89h230.711l11.253-61.89c17.042,0,33.196-3.796,47.671-10.576c38.314-17.946,64.856-56.845,64.856-101.951
	C495.121,196.665,444.741,146.286,382.593,146.286z"/>
<g>
	<path style="fill:#A59D8C;" d="M205.363,464.176c-4.662,0-8.44-3.779-8.44-8.44v-45.011c0-4.661,3.778-8.44,8.44-8.44
		c4.662,0,8.44,3.779,8.44,8.44v45.011C213.802,460.397,210.025,464.176,205.363,464.176z"/>
	<path style="fill:#A59D8C;" d="M256,464.176c-4.662,0-8.44-3.779-8.44-8.44v-45.011c0-4.661,3.778-8.44,8.44-8.44
		c4.662,0,8.44,3.779,8.44,8.44v45.011C264.44,460.397,260.662,464.176,256,464.176z"/>
	<path style="fill:#A59D8C;" d="M306.637,464.176c-4.662,0-8.44-3.779-8.44-8.44v-45.011c0-4.661,3.778-8.44,8.44-8.44
		s8.44,3.779,8.44,8.44v45.011C315.077,460.397,311.299,464.176,306.637,464.176z"/>
	<path style="fill:#A59D8C;" d="M284.125,362.903c-3.781,0-7.222-2.56-8.182-6.395l-11.253-45.011
		c-1.13-4.521,1.618-9.103,6.141-10.234c4.52-1.13,9.105,1.618,10.235,6.141l11.253,45.011c1.13,4.521-1.618,9.103-6.141,10.234
		C285.492,362.821,284.804,362.903,284.125,362.903z"/>
	<path style="fill:#A59D8C;" d="M227.875,362.903c-0.679,0-1.366-0.082-2.054-0.254c-4.522-1.13-7.27-5.713-6.141-10.234
		l11.253-45.011c1.132-4.522,5.712-7.27,10.235-6.141c4.522,1.13,7.27,5.713,6.141,10.234l-11.253,45.011
		C235.097,360.343,231.656,362.903,227.875,362.903z"/>
</g>
<circle style="fill:#68615B;" cx="382.593" cy="258.813" r="67.516"/>
<g>
	<circle style="fill:#E2D8BD;" cx="191.297" cy="112.527" r="8.44"/>
	<circle style="fill:#E2D8BD;" cx="225.055" cy="146.286" r="8.44"/>
</g>
<circle style="fill:#68615B;" cx="129.407" cy="258.813" r="67.516"/>
<path style="fill:#A59D8C;" d="M371.341,441.67H140.63c-4.662,0-8.44-3.779-8.44-8.44c0-4.661,3.778-8.44,8.44-8.44h230.711
	c4.662,0,8.44,3.779,8.44,8.44C379.78,437.892,376.003,441.67,371.341,441.67z"/>
<g>
</g>
<g>
</g>
<g>
</g>
<g>
</g>
<g>
</g>
<g>
</g>
<g>
</g>
<g>
</g>
<g>
</g>
<g>
</g>
<g>
</g>
<g>
</g>
<g>
</g>
<g>
</g>
<g>
</g>
</svg>
